<svg id="azul" xmlns="http://www.w3.org/2000/svg" viewBox="0 0 839.85 587.4"><defs><style>.cls-1{fill:#0353a4;}</style></defs><path class="cls-1" d="M260.1,725.09a23.24,23.24,0,1,0,23.13,23.37A23.25,23.25,0,0,0,260.1,725.09Z" transform="translate(-120.08 -246.3)"/><path class="cls-1" d="M332.1,273.85a23.25,23.25,0,1,0,24.63,21.75A23.26,23.26,0,0,0,332.1,273.85Z" transform="translate(-120.08 -246.3)"/><path class="cls-1" d="M729.9,273.66A23.25,23.25,0,1,0,757.84,291,23.26,23.26,0,0,0,729.9,273.66Z" transform="translate(-120.08 -246.3)"/><path class="cls-1" d="M541.13,573.16a23.24,23.24,0,1,0,20.79,25.43A23.25,23.25,0,0,0,541.13,573.16Z" transform="translate(-120.08 -246.3)"/><path class="cls-1" d="M857.76,642.8c.07-12.66-5-28.46-17.46-47.44C773.52,494,790,323.44,784.61,290.61a37.38,37.38,0,0,0-4.55-12.89,48.41,48.41,0,0,0-65.82-25.22,35.19,35.19,0,0,0-6.47,3.75,48.71,48.71,0,0,0-20.29,31.12,132.35,132.35,0,0,0-5,21.28C667.72,401.47,588.17,491.24,544.57,540c-98.51-69.45-147.33-230.83-164.7-258.88-.28-.47-.59-.92-.89-1.39A48.73,48.73,0,0,0,364.89,260c-19.29-18.75-52-19.73-69.12,6.61a48.31,48.31,0,0,0-10.71,33.5,4.26,4.26,0,0,0,0,.47c-1.1,11.83-.49,25.8,2.44,42.09,22.95,127.72-42.16,303.2-59.39,364H208.93A23,23,0,0,0,186.08,728v98.82H337.89V729.71a23,23,0,0,0-22.95-23.07H300.79c-5.79-122.74,28.54-250.91,59-339.88,68.27,78.05,108,175.77,129,237.1a52.71,52.71,0,0,0,5.11,10.81,48.58,48.58,0,0,0,93.31-13.55c.09-1,.09-2,.14-3,29.67-96.31,95-178.56,147-233.5,31,92.56,32.18,191.24,29,255.91a47.9,47.9,0,0,0-4.43,21.63L722.54,695l4.5,52c.47,5.22,8,5.41,8.74.21l5.93-43.81,24.45-36.7a48.53,48.53,0,0,0,79.6,3.72,36.23,36.23,0,0,0,4.61-4.89l25.11,32,9.33,43.2c1.1,5.13,8.64,4.36,8.69-.89l.42-52.2Zm-598,143.61A38.08,38.08,0,1,1,298,748.53,38.1,38.1,0,0,1,259.77,786.41Zm76.15-451.36a38.07,38.07,0,1,1,35.6-40.36A38.06,38.06,0,0,1,335.92,335.05Zm240.76,265a38.07,38.07,0,1,1-34.08-41.68A38.07,38.07,0,0,1,576.68,600.07ZM743.94,333.34a38.06,38.06,0,1,1,28.34-45.76A38.06,38.06,0,0,1,743.94,333.34Zm96.5,326.22A38.07,38.07,0,1,1,826,607.71,38,38,0,0,1,840.44,659.56Z" transform="translate(-120.08 -246.3)"/><path class="cls-1" d="M818.71,620.6a23.24,23.24,0,1,0,8.81,31.67A23.28,23.28,0,0,0,818.71,620.6Z" transform="translate(-120.08 -246.3)"/><rect class="cls-1" x="628.64" y="460.24" width="121.95" height="120.3"/><rect class="cls-1" y="572.86" width="839.85" height="14.54" rx="2"/></svg>