<svg width="50" height="50" viewBox="0 0 50 50" fill="none" xmlns="http://www.w3.org/2000/svg">
<path d="M33.25 25.0016L48.7181 9.53341C50.4272 7.82434 50.4272 5.05351 48.7181 3.34711L46.656 1.28501C44.9464 -0.424597 42.1756 -0.424597 40.4692 1.28501L25.0016 16.7526L9.53341 1.2818C7.82434 -0.427267 5.05351 -0.427267 3.34711 1.2818L1.2818 3.3439C-0.427267 5.05351 -0.427267 7.82434 1.2818 9.53073L16.7526 25.0016L1.28501 40.4692C-0.424597 42.1788 -0.424597 44.9496 1.28501 46.656L3.34711 48.7181C5.05618 50.4272 7.82701 50.4272 9.53341 48.7181L25.0016 33.25L40.4692 48.7181C42.1788 50.4272 44.9496 50.4272 46.656 48.7181L48.7181 46.656C50.4272 44.9464 50.4272 42.1756 48.7181 40.4692L33.25 25.0016Z" fill="#000E3E"/>
</svg>
