<svg width="48" height="48" viewBox="0 0 48 48" fill="none" xmlns="http://www.w3.org/2000/svg">
<g clip-path="url(#clip0)">
<path d="M47.0461 14.754C46.9358 12.2519 46.5311 10.5317 45.9515 9.04116C45.3536 7.45897 44.4336 6.04243 43.2284 4.86485C42.0508 3.66895 40.6249 2.73968 39.0611 2.15108C37.5619 1.57145 35.8507 1.16683 33.3486 1.05651C30.8278 0.936849 30.0275 0.90918 23.634 0.90918C17.2406 0.90918 16.4403 0.936849 13.9288 1.04717C11.4267 1.15749 9.70653 1.56247 8.21632 2.14173C6.63377 2.73968 5.21723 3.65961 4.03966 4.86485C2.84375 6.04243 1.91485 7.46831 1.32588 9.03218C0.746257 10.5317 0.341635 12.2426 0.231316 14.7447C0.111654 17.2655 0.0839844 18.0658 0.0839844 24.4592C0.0839844 30.8527 0.111654 31.653 0.221973 34.1644C0.332292 36.6666 0.737274 38.3867 1.3169 39.8773C1.91485 41.4595 2.84375 42.876 4.03966 44.0536C5.21723 45.2495 6.64311 46.1788 8.20698 46.7674C9.70653 47.347 11.4174 47.7516 13.9198 47.862C16.431 47.9726 17.2316 47.9999 23.625 47.9999C30.0185 47.9999 30.8188 47.9726 33.3302 47.862C35.8324 47.7516 37.5525 47.347 39.0427 46.7674C42.2075 45.5438 44.7096 43.0417 45.9332 39.8773C46.5125 38.3778 46.9174 36.6666 47.0278 34.1644C47.1381 31.653 47.1657 30.8527 47.1657 24.4592C47.1657 18.0658 47.1564 17.2655 47.0461 14.754ZM42.8054 33.9804C42.7041 36.2803 42.3178 37.5222 41.9958 38.3501C41.2046 40.4016 39.5764 42.0298 37.5249 42.8211C36.6969 43.143 35.4461 43.5293 33.1552 43.6303C30.6714 43.741 29.9265 43.7683 23.6434 43.7683C17.3602 43.7683 16.606 43.741 14.1311 43.6303C11.8313 43.5293 10.5894 43.143 9.76151 42.8211C8.74061 42.4437 7.81134 41.8458 7.05708 41.0639C6.27514 40.3003 5.67719 39.3803 5.29988 38.3594C4.97791 37.5315 4.59161 36.2803 4.49063 33.9898C4.37996 31.506 4.35264 30.7607 4.35264 24.4776C4.35264 18.1944 4.37996 17.4401 4.49063 14.9657C4.59161 12.6659 4.97791 11.424 5.29988 10.5961C5.67719 9.57479 6.27514 8.64588 7.06642 7.89126C7.82967 7.10932 8.74959 6.51137 9.77085 6.13442C10.5988 5.81245 11.85 5.42615 14.1405 5.32481C16.6243 5.2145 17.3696 5.18683 23.6524 5.18683C29.9448 5.18683 30.6898 5.2145 33.1646 5.32481C35.4644 5.42615 36.7063 5.81245 37.5342 6.13442C38.5551 6.51137 39.4844 7.10932 40.2386 7.89126C41.0206 8.65487 41.6185 9.57479 41.9958 10.5961C42.3178 11.424 42.7041 12.6749 42.8054 14.9657C42.9158 17.4495 42.9434 18.1944 42.9434 24.4776C42.9434 30.7607 42.9158 31.4967 42.8054 33.9804Z" fill="#FFFFFA"/>
<path d="M23.6331 12.3623C16.9547 12.3623 11.5361 17.7805 11.5361 24.4593C11.5361 31.1381 16.9547 36.5563 23.6331 36.5563C30.3119 36.5563 35.7301 31.1381 35.7301 24.4593C35.7301 17.7805 30.3119 12.3623 23.6331 12.3623ZM23.6331 32.3063C19.3005 32.3063 15.7861 28.7923 15.7861 24.4593C15.7861 20.1263 19.3005 16.6123 23.6331 16.6123C27.9661 16.6123 31.4802 20.1263 31.4802 24.4593C31.4802 28.7923 27.9661 32.3063 23.6331 32.3063V32.3063Z" fill="#FFFFFA"/>
<path d="M39.0324 11.8839C39.0324 13.4435 37.7678 14.708 36.2079 14.708C34.6483 14.708 33.3838 13.4435 33.3838 11.8839C33.3838 10.324 34.6483 9.05981 36.2079 9.05981C37.7678 9.05981 39.0324 10.324 39.0324 11.8839V11.8839Z" fill="#FFFFFA"/>
</g>
<defs>
<clipPath id="clip0">
<rect width="47.0909" height="47.0909" fill="white" transform="translate(0 0.90918)"/>
</clipPath>
</defs>
</svg>
