<svg width="48" height="48" viewBox="0 0 48 48" fill="none" xmlns="http://www.w3.org/2000/svg">
<path d="M6.80207 2.39136C3.56482 2.39136 1.44824 4.5171 1.44824 7.31109C1.44824 10.0434 3.50177 12.2297 6.67785 12.2297H6.73929C10.0399 12.2297 12.0939 10.0434 12.0939 7.31109C12.0322 4.5171 10.0399 2.39136 6.80207 2.39136V2.39136Z" fill="#FFFFFA"/>
<path d="M2.00781 16.1169H11.4717V44.5893H2.00781V16.1169Z" fill="#FFFFFA"/>
<path d="M34.701 15.449C29.5956 15.449 26.1721 20.2464 26.1721 20.2464V16.1172H16.708V44.5896H26.1716V28.6895C26.1716 27.8383 26.2333 26.9884 26.4833 26.3797C27.1675 24.68 28.7244 22.9191 31.3389 22.9191C34.7635 22.9191 36.1331 25.5301 36.1331 29.3578V44.5896H45.5962V28.264C45.5962 19.5186 40.927 15.449 34.701 15.449V15.449Z" fill="#FFFFFA"/>
</svg>
