<svg width="68" height="43" viewBox="0 0 68 43" fill="none" xmlns="http://www.w3.org/2000/svg">
<path d="M48.9181 0.404997V42H37.3541V19.049L29.5071 42H19.8311L11.9251 18.872V42H0.361129V0.404997H14.3441L24.7871 27.427L34.9941 0.404997H48.9181ZM61.1058 42.472C59.0604 42.472 57.4084 41.9213 56.1498 40.82C54.9304 39.6793 54.3208 38.2437 54.3208 36.513C54.3208 34.7823 54.9304 33.3467 56.1498 32.206C57.4084 31.0653 59.0604 30.495 61.1058 30.495C63.1118 30.495 64.7244 31.0653 65.9438 32.206C67.2024 33.3467 67.8318 34.7823 67.8318 36.513C67.8318 38.2043 67.2024 39.6203 65.9438 40.761C64.7244 41.9017 63.1118 42.472 61.1058 42.472Z" fill="#000E3E"/>
</svg>
