<svg width="360" height="1011" viewBox="0 0 360 1011" fill="none" xmlns="http://www.w3.org/2000/svg">
<g clip-path="url(#clip0)">
<path d="M1352 0H-92V1011H1352V0Z" fill="url(#paint0_linear)"/>
<g opacity="0.19">
<path opacity="0.19" d="M21.6638 9.18162L19.2915 11.0386V8.35631L21.6638 6.60254H24.0361V24.0371H21.6638V9.18162Z" fill="#64A3FF"/>
<path opacity="0.19" d="M21.6638 33.7344L19.2915 35.5913V32.909L21.6638 31.1553H24.0361V48.5899H21.6638V33.7344Z" fill="#64A3FF"/>
<path opacity="0.19" d="M17.9507 60.4537C17.9507 58.8031 18.4664 57.5651 19.4978 56.7398C20.4261 55.9145 21.5607 55.3987 22.7984 55.3987C24.1392 55.3987 25.2738 55.8113 26.2021 56.7398C27.1304 57.5651 27.6461 58.8031 27.6461 60.4537V68.1909C27.6461 69.8415 27.1304 71.0795 26.2021 71.9048C25.2738 72.7301 24.1392 73.2459 22.7984 73.2459C21.5607 73.2459 20.4261 72.8333 19.4978 71.9048C18.4664 71.0795 18.0538 69.8415 17.9507 68.1909V60.4537ZM25.1707 60.66C25.1707 58.9062 24.3455 57.9778 22.7984 57.9778C21.2513 57.9778 20.4261 58.9062 20.4261 60.66V68.0878C20.4261 69.8415 21.2513 70.77 22.7984 70.77C24.3455 70.77 25.1707 69.8415 25.1707 68.0878V60.66Z" fill="#64A3FF"/>
<path opacity="0.19" d="M17.9507 85.0064C17.9507 83.3558 18.4664 82.1178 19.4978 81.2925C20.4261 80.4672 21.5607 79.9514 22.7984 79.9514C24.1392 79.9514 25.2738 80.3641 26.2021 81.2925C27.1304 82.1178 27.6461 83.3558 27.6461 85.0064V92.7437C27.6461 94.3943 27.1304 95.6322 26.2021 96.4575C25.2738 97.2828 24.1392 97.7987 22.7984 97.7987C21.5607 97.7987 20.4261 97.386 19.4978 96.4575C18.4664 95.6322 18.0538 94.3943 17.9507 92.7437V85.0064ZM25.1707 85.1096C25.1707 83.3558 24.3455 82.4273 22.7984 82.4273C21.2513 82.4273 20.4261 83.3558 20.4261 85.1096V92.5373C20.4261 94.2911 21.2513 95.2196 22.7984 95.2196C24.3455 95.2196 25.1707 94.2911 25.1707 92.5373V85.1096Z" fill="#64A3FF"/>
<path opacity="0.19" d="M21.6638 107.29L19.2915 109.147V106.464L21.6638 104.711H24.0361V122.145H21.6638V107.29Z" fill="#64A3FF"/>
<path opacity="0.19" d="M17.9507 134.009C17.9507 132.358 18.4664 131.121 19.4978 130.295C20.4261 129.47 21.5607 128.954 22.7984 128.954C24.1392 128.954 25.2738 129.367 26.2021 130.295C27.1304 131.121 27.6461 132.358 27.6461 134.009V141.746C27.6461 143.397 27.1304 144.635 26.2021 145.46C25.2738 146.286 24.1392 146.801 22.7984 146.801C21.5607 146.801 20.4261 146.389 19.4978 145.46C18.4664 144.635 18.0538 143.397 17.9507 141.746V134.009ZM25.1707 134.215C25.1707 132.462 24.3455 131.533 22.7984 131.533C21.2513 131.533 20.4261 132.462 20.4261 134.215V141.643C20.4261 143.397 21.2513 144.325 22.7984 144.325C24.3455 144.325 25.1707 143.397 25.1707 141.643V134.215Z" fill="#64A3FF"/>
<path opacity="0.19" d="M21.6638 156.292L19.2915 158.149V155.467L21.6638 153.713H24.0361V171.148H21.6638V156.292Z" fill="#64A3FF"/>
<path opacity="0.19" d="M17.9507 183.012C17.9507 181.361 18.4664 180.123 19.4978 179.298C20.4261 178.472 21.5607 177.957 22.7984 177.957C24.1392 177.957 25.2738 178.369 26.2021 179.298C27.1304 180.123 27.6461 181.361 27.6461 183.012V190.749C27.6461 192.4 27.1304 193.637 26.2021 194.463C25.2738 195.288 24.1392 195.804 22.7984 195.804C21.5607 195.804 20.4261 195.391 19.4978 194.463C18.4664 193.637 18.0538 192.4 17.9507 190.749V183.012ZM25.1707 183.218C25.1707 181.464 24.3455 180.536 22.7984 180.536C21.2513 180.536 20.4261 181.464 20.4261 183.218V190.646C20.4261 192.4 21.2513 193.328 22.7984 193.328C24.3455 193.328 25.1707 192.4 25.1707 190.646V183.218Z" fill="#64A3FF"/>
<path opacity="0.19" d="M21.6638 205.295L19.2915 207.152V204.47L21.6638 202.716H24.0361V220.15H21.6638V205.295Z" fill="#64A3FF"/>
<path opacity="0.19" d="M21.6638 229.848L19.2915 231.705V229.022L21.6638 227.269H24.0361V244.703H21.6638V229.848Z" fill="#64A3FF"/>
<path opacity="0.19" d="M17.9507 256.567C17.9507 254.916 18.4664 253.678 19.4978 252.853C20.4261 252.028 21.5607 251.512 22.7984 251.512C24.1392 251.512 25.2738 251.925 26.2021 252.853C27.1304 253.678 27.6461 254.916 27.6461 256.567V264.304C27.6461 265.955 27.1304 267.193 26.2021 268.018C25.2738 268.843 24.1392 269.359 22.7984 269.359C21.5607 269.359 20.4261 268.947 19.4978 268.018C18.4664 267.193 18.0538 265.955 17.9507 264.304V256.567ZM25.1707 256.773C25.1707 255.02 24.3455 254.091 22.7984 254.091C21.2513 254.091 20.4261 255.02 20.4261 256.773V264.201C20.4261 265.955 21.2513 266.883 22.7984 266.883C24.3455 266.883 25.1707 265.955 25.1707 264.201V256.773Z" fill="#64A3FF"/>
<path opacity="0.19" d="M17.9507 281.12C17.9507 279.469 18.4664 278.231 19.4978 277.406C20.4261 276.581 21.5607 276.065 22.7984 276.065C24.1392 276.065 25.2738 276.478 26.2021 277.406C27.1304 278.231 27.6461 279.469 27.6461 281.12V288.857C27.6461 290.508 27.1304 291.746 26.2021 292.571C25.2738 293.396 24.1392 293.912 22.7984 293.912C21.5607 293.912 20.4261 293.5 19.4978 292.571C18.4664 291.746 18.0538 290.508 17.9507 288.857V281.12ZM25.1707 281.223C25.1707 279.469 24.3455 278.541 22.7984 278.541C21.2513 278.541 20.4261 279.469 20.4261 281.223V288.651C20.4261 290.405 21.2513 291.333 22.7984 291.333C24.3455 291.333 25.1707 290.405 25.1707 288.651V281.223Z" fill="#64A3FF"/>
<path opacity="0.19" d="M17.9507 305.57C17.9507 303.919 18.4664 302.681 19.4978 301.856C20.4261 301.03 21.5607 300.515 22.7984 300.515C24.1392 300.515 25.2738 300.927 26.2021 301.856C27.1304 302.681 27.6461 303.919 27.6461 305.57V313.307C27.6461 314.957 27.1304 316.195 26.2021 317.021C25.2738 317.846 24.1392 318.362 22.7984 318.362C21.5607 318.362 20.4261 317.949 19.4978 317.021C18.4664 316.195 18.0538 314.957 17.9507 313.307V305.57ZM25.1707 305.776C25.1707 304.022 24.3455 303.094 22.7984 303.094C21.2513 303.094 20.4261 304.022 20.4261 305.776V313.204C20.4261 314.957 21.2513 315.886 22.7984 315.886C24.3455 315.886 25.1707 314.957 25.1707 313.204V305.776Z" fill="#64A3FF"/>
<path opacity="0.19" d="M17.9507 330.122C17.9507 328.472 18.4664 327.234 19.4978 326.408C20.4261 325.583 21.5607 325.067 22.7984 325.067C24.1392 325.067 25.2738 325.48 26.2021 326.408C27.1304 327.234 27.6461 328.472 27.6461 330.122V337.86C27.6461 339.51 27.1304 340.748 26.2021 341.574C25.2738 342.399 24.1392 342.915 22.7984 342.915C21.5607 342.915 20.4261 342.502 19.4978 341.574C18.4664 340.748 18.0538 339.51 17.9507 337.86V330.122ZM25.1707 330.226C25.1707 328.472 24.3455 327.543 22.7984 327.543C21.2513 327.543 20.4261 328.472 20.4261 330.226V337.653C20.4261 339.407 21.2513 340.336 22.7984 340.336C24.3455 340.336 25.1707 339.407 25.1707 337.653V330.226Z" fill="#64A3FF"/>
<path opacity="0.19" d="M21.6638 352.406L19.2915 354.263V351.58L21.6638 349.827H24.0361V367.261H21.6638V352.406Z" fill="#64A3FF"/>
<path opacity="0.19" d="M17.9507 379.125C17.9507 377.474 18.4664 376.236 19.4978 375.411C20.4261 374.586 21.5607 374.07 22.7984 374.07C24.1392 374.07 25.2738 374.483 26.2021 375.411C27.1304 376.236 27.6461 377.474 27.6461 379.125V386.862C27.6461 388.513 27.1304 389.751 26.2021 390.576C25.2738 391.401 24.1392 391.917 22.7984 391.917C21.5607 391.917 20.4261 391.505 19.4978 390.576C18.4664 389.751 18.0538 388.513 17.9507 386.862V379.125ZM25.1707 379.331C25.1707 377.578 24.3455 376.649 22.7984 376.649C21.2513 376.649 20.4261 377.578 20.4261 379.331V386.759C20.4261 388.513 21.2513 389.441 22.7984 389.441C24.3455 389.441 25.1707 388.513 25.1707 386.759V379.331Z" fill="#64A3FF"/>
<path opacity="0.19" d="M21.6638 401.408L19.2915 403.265V400.583L21.6638 398.829H24.0361V416.264H21.6638V401.408Z" fill="#64A3FF"/>
<path opacity="0.19" d="M21.6638 425.961L19.2915 427.818V425.136L21.6638 423.382H24.0361V440.817H21.6638V425.961Z" fill="#64A3FF"/>
<path opacity="0.19" d="M17.9507 452.68C17.9507 451.03 18.4664 449.792 19.4978 448.967C20.4261 448.141 21.5607 447.625 22.7984 447.625C24.1392 447.625 25.2738 448.038 26.2021 448.967C27.1304 449.792 27.6461 451.03 27.6461 452.68V460.418C27.6461 462.068 27.1304 463.306 26.2021 464.131C25.2738 464.957 24.1392 465.473 22.7984 465.473C21.5607 465.473 20.4261 465.06 19.4978 464.131C18.4664 463.306 18.0538 462.068 17.9507 460.418V452.68ZM25.1707 452.784C25.1707 451.03 24.3455 450.101 22.7984 450.101C21.2513 450.101 20.4261 451.03 20.4261 452.784V460.211C20.4261 461.965 21.2513 462.894 22.7984 462.894C24.3455 462.894 25.1707 461.965 25.1707 460.211V452.784Z" fill="#64A3FF"/>
<path opacity="0.19" d="M17.9507 477.13C17.9507 475.479 18.4664 474.241 19.4978 473.416C20.4261 472.591 21.5607 472.075 22.7984 472.075C24.1392 472.075 25.2738 472.488 26.2021 473.416C27.1304 474.241 27.6461 475.479 27.6461 477.13V484.867C27.6461 486.518 27.1304 487.756 26.2021 488.581C25.2738 489.406 24.1392 489.922 22.7984 489.922C21.5607 489.922 20.4261 489.51 19.4978 488.581C18.4664 487.756 18.0538 486.518 17.9507 484.867V477.13ZM25.1707 477.336C25.1707 475.583 24.3455 474.654 22.7984 474.654C21.2513 474.654 20.4261 475.583 20.4261 477.336V484.764C20.4261 486.518 21.2513 487.446 22.7984 487.446C24.3455 487.446 25.1707 486.518 25.1707 484.764V477.336Z" fill="#64A3FF"/>
<path opacity="0.19" d="M21.6638 499.517L19.2915 501.374V498.691L21.6638 496.938H24.0361V514.372H21.6638V499.517Z" fill="#64A3FF"/>
<path opacity="0.19" d="M17.9507 526.236C17.9507 524.585 18.4664 523.347 19.4978 522.522C20.4261 521.697 21.5607 521.181 22.7984 521.181C24.1392 521.181 25.2738 521.593 26.2021 522.522C27.1304 523.347 27.6461 524.585 27.6461 526.236V533.973C27.6461 535.624 27.1304 536.862 26.2021 537.687C25.2738 538.512 24.1392 539.028 22.7984 539.028C21.5607 539.028 20.4261 538.615 19.4978 537.687C18.4664 536.862 18.0538 535.624 17.9507 533.973V526.236ZM25.1707 526.339C25.1707 524.585 24.3455 523.657 22.7984 523.657C21.2513 523.657 20.4261 524.585 20.4261 526.339V533.767C20.4261 535.52 21.2513 536.449 22.7984 536.449C24.3455 536.449 25.1707 535.52 25.1707 533.767V526.339Z" fill="#64A3FF"/>
<path opacity="0.19" d="M17.9507 550.686C17.9507 549.035 18.4664 547.797 19.4978 546.972C20.4261 546.146 21.5607 545.631 22.7984 545.631C24.1392 545.631 25.2738 546.043 26.2021 546.972C27.1304 547.797 27.6461 549.035 27.6461 550.686V558.423C27.6461 560.073 27.1304 561.311 26.2021 562.137C25.2738 562.962 24.1392 563.478 22.7984 563.478C21.5607 563.478 20.4261 563.065 19.4978 562.137C18.4664 561.311 18.0538 560.073 17.9507 558.423V550.686ZM25.1707 550.892C25.1707 549.138 24.3455 548.21 22.7984 548.21C21.2513 548.21 20.4261 549.138 20.4261 550.892V558.32C20.4261 560.074 21.2513 561.002 22.7984 561.002C24.3455 561.002 25.1707 560.074 25.1707 558.32V550.892Z" fill="#64A3FF"/>
<path opacity="0.19" d="M17.9507 575.238C17.9507 573.588 18.4664 572.35 19.4978 571.524C20.4261 570.699 21.5607 570.183 22.7984 570.183C24.1392 570.183 25.2738 570.596 26.2021 571.524C27.1304 572.35 27.6461 573.588 27.6461 575.238V582.976C27.6461 584.626 27.1304 585.864 26.2021 586.689C25.2738 587.515 24.1392 588.031 22.7984 588.031C21.5607 588.031 20.4261 587.618 19.4978 586.689C18.4664 585.864 18.0538 584.626 17.9507 582.976V575.238ZM25.1707 575.342C25.1707 573.588 24.3455 572.659 22.7984 572.659C21.2513 572.659 20.4261 573.588 20.4261 575.342V582.769C20.4261 584.523 21.2513 585.451 22.7984 585.451C24.3455 585.451 25.1707 584.523 25.1707 582.769V575.342Z" fill="#64A3FF"/>
<path opacity="0.19" d="M21.6638 597.522L19.2915 599.379V596.696L21.6638 594.943H24.0361V612.377H21.6638V597.522Z" fill="#64A3FF"/>
<path opacity="0.19" d="M21.6638 622.074L19.2915 623.931V621.249L21.6638 619.495H24.0361V636.93H21.6638V622.074Z" fill="#64A3FF"/>
<path opacity="0.19" d="M17.9507 648.794C17.9507 647.143 18.4664 645.905 19.4978 645.08C20.4261 644.255 21.5607 643.739 22.7984 643.739C24.1392 643.739 25.2738 644.151 26.2021 645.08C27.1304 645.905 27.6461 647.143 27.6461 648.794V656.531C27.6461 658.182 27.1304 659.42 26.2021 660.245C25.2738 661.07 24.1392 661.586 22.7984 661.586C21.5607 661.586 20.4261 661.173 19.4978 660.245C18.4664 659.42 18.0538 658.182 17.9507 656.531V648.794ZM25.1707 648.897C25.1707 647.143 24.3455 646.215 22.7984 646.215C21.2513 646.215 20.4261 647.143 20.4261 648.897V656.325C20.4261 658.078 21.2513 659.007 22.7984 659.007C24.3455 659.007 25.1707 658.078 25.1707 656.325V648.897Z" fill="#64A3FF"/>
<path opacity="0.19" d="M17.9507 673.243C17.9507 671.593 18.4664 670.355 19.4978 669.53C20.4261 668.704 21.5607 668.188 22.7984 668.188C24.1392 668.188 25.2738 668.601 26.2021 669.53C27.1304 670.355 27.6461 671.593 27.6461 673.243V680.981C27.6461 682.631 27.1304 683.869 26.2021 684.695C25.2738 685.52 24.1392 686.036 22.7984 686.036C21.5607 686.036 20.4261 685.623 19.4978 684.695C18.4664 683.869 18.0538 682.631 17.9507 680.981V673.243ZM25.1707 673.45C25.1707 671.696 24.3455 670.768 22.7984 670.768C21.2513 670.768 20.4261 671.696 20.4261 673.45V680.878C20.4261 682.631 21.2513 683.56 22.7984 683.56C24.3455 683.56 25.1707 682.631 25.1707 680.878V673.45Z" fill="#64A3FF"/>
<path opacity="0.19" d="M21.6638 695.527L19.2915 697.384V694.702L21.6638 692.948H24.0361V710.382H21.6638V695.527Z" fill="#64A3FF"/>
<path opacity="0.19" d="M17.9507 722.349C17.9507 720.699 18.4664 719.461 19.4978 718.635C20.4261 717.81 21.5607 717.294 22.7984 717.294C24.1392 717.294 25.2738 717.707 26.2021 718.635C27.1304 719.461 27.6461 720.699 27.6461 722.349V730.086C27.6461 731.737 27.1304 732.975 26.2021 733.8C25.2738 734.626 24.1392 735.141 22.7984 735.141C21.5607 735.141 20.4261 734.729 19.4978 733.8C18.4664 732.975 18.0538 731.737 17.9507 730.086V722.349ZM25.1707 722.452C25.1707 720.699 24.3455 719.77 22.7984 719.77C21.2513 719.77 20.4261 720.699 20.4261 722.452V729.88C20.4261 731.634 21.2513 732.562 22.7984 732.562C24.3455 732.562 25.1707 731.634 25.1707 729.88V722.452Z" fill="#64A3FF"/>
<path opacity="0.19" d="M21.6638 744.632L19.2915 746.489V743.807L21.6638 742.053H24.0361V759.488H21.6638V744.632Z" fill="#64A3FF"/>
<path opacity="0.19" d="M17.9507 771.352C17.9507 769.701 18.4664 768.463 19.4978 767.638C20.4261 766.813 21.5607 766.297 22.7984 766.297C24.1392 766.297 25.2738 766.709 26.2021 767.638C27.1304 768.463 27.6461 769.701 27.6461 771.352V779.089C27.6461 780.74 27.1304 781.978 26.2021 782.803C25.2738 783.628 24.1392 784.144 22.7984 784.144C21.5607 784.144 20.4261 783.731 19.4978 782.803C18.4664 781.978 18.0538 780.74 17.9507 779.089V771.352ZM25.1707 771.455C25.1707 769.701 24.3455 768.773 22.7984 768.773C21.2513 768.773 20.4261 769.701 20.4261 771.455V778.883C20.4261 780.636 21.2513 781.565 22.7984 781.565C24.3455 781.565 25.1707 780.636 25.1707 778.883V771.455Z" fill="#64A3FF"/>
<path opacity="0.19" d="M21.6638 793.635L19.2915 795.492V792.81L21.6638 791.056H24.0361V808.491H21.6638V793.635Z" fill="#64A3FF"/>
<path opacity="0.19" d="M21.6638 818.085L19.2915 819.942V817.259L21.6638 815.506H24.0361V832.94H21.6638V818.085Z" fill="#64A3FF"/>
<path opacity="0.19" d="M21.6638 842.638L19.2915 844.494V841.812L21.6638 840.058H24.0361V857.493H21.6638V842.638Z" fill="#64A3FF"/>
<path opacity="0.19" d="M17.9507 869.357C17.9507 867.706 18.4664 866.468 19.4978 865.643C20.4261 864.818 21.5607 864.302 22.7984 864.302C24.1392 864.302 25.2738 864.714 26.2021 865.643C27.1304 866.468 27.6461 867.706 27.6461 869.357V877.094C27.6461 878.745 27.1304 879.983 26.2021 880.808C25.2738 881.633 24.1392 882.149 22.7984 882.149C21.5607 882.149 20.4261 881.736 19.4978 880.808C18.4664 879.983 18.0538 878.745 17.9507 877.094V869.357ZM25.1707 869.563C25.1707 867.809 24.3455 866.881 22.7984 866.881C21.2513 866.881 20.4261 867.809 20.4261 869.563V876.991C20.4261 878.745 21.2513 879.673 22.7984 879.673C24.3455 879.673 25.1707 878.745 25.1707 876.991V869.563Z" fill="#64A3FF"/>
<path opacity="0.19" d="M17.9507 893.91C17.9507 892.259 18.4664 891.021 19.4978 890.196C20.4261 889.371 21.5607 888.855 22.7984 888.855C24.1392 888.855 25.2738 889.267 26.2021 890.196C27.1304 891.021 27.6461 892.259 27.6461 893.91V901.647C27.6461 903.298 27.1304 904.536 26.2021 905.361C25.2738 906.186 24.1392 906.702 22.7984 906.702C21.5607 906.702 20.4261 906.289 19.4978 905.361C18.4664 904.536 18.0538 903.298 17.9507 901.647V893.91ZM25.1707 894.013C25.1707 892.259 24.3455 891.331 22.7984 891.331C21.2513 891.331 20.4261 892.259 20.4261 894.013V901.441C20.4261 903.194 21.2513 904.123 22.7984 904.123C24.3455 904.123 25.1707 903.194 25.1707 901.441V894.013Z" fill="#64A3FF"/>
</g>
<g opacity="0.08">
<path opacity="0.08" d="M91.4915 -11.8637L87.7783 -9.0783V-13.2048L91.4915 -15.9902H95.2046V11.1417H91.4915V-11.8637Z" fill="#64A3FF"/>
<path opacity="0.08" d="M91.4915 26.3067L87.7783 29.0921V24.9656L91.4915 22.1802H95.2046V49.3121H91.4915V26.3067Z" fill="#64A3FF"/>
<path opacity="0.08" d="M85.7153 67.8815C85.7153 65.4056 86.5405 63.4455 88.0876 62.1044C89.5316 60.7633 91.1819 60.1443 93.2448 60.1443C95.3076 60.1443 97.061 60.7633 98.505 62.1044C99.949 63.4455 100.671 65.4056 100.774 67.8815V79.8485C100.774 82.3244 99.949 84.2845 98.505 85.6256C97.061 86.9667 95.3076 87.6889 93.2448 87.6889C91.285 87.6889 89.5316 86.9667 88.0876 85.6256C86.5405 84.2845 85.8185 82.3244 85.7153 79.8485V67.8815ZM96.8548 68.0879C96.7516 65.4056 95.5139 63.9613 93.1416 63.9613C90.7693 63.9613 89.5316 65.4056 89.4285 68.0879V79.6421C89.4285 82.4276 90.6662 83.7687 93.1416 83.7687C95.5139 83.7687 96.7516 82.3244 96.8548 79.6421V68.0879Z" fill="#64A3FF"/>
<path opacity="0.08" d="M91.4915 102.544L87.7783 105.33V101.203L91.4915 98.4177H95.2046V125.55H91.4915V102.544Z" fill="#64A3FF"/>
<path opacity="0.08" d="M91.4915 140.612L87.7783 143.397V139.271L91.4915 136.485H95.2046V163.617H91.4915V140.612Z" fill="#64A3FF"/>
<path opacity="0.08" d="M85.7153 182.186C85.7153 179.711 86.5405 177.75 88.0876 176.409C89.5316 175.068 91.1819 174.449 93.2448 174.449C95.3076 174.449 97.061 175.068 98.505 176.409C99.949 177.75 100.671 179.711 100.774 182.186V194.153C100.774 196.629 99.949 198.589 98.505 199.931C97.061 201.272 95.3076 201.994 93.2448 201.994C91.285 201.994 89.5316 201.272 88.0876 199.931C86.5405 198.589 85.8185 196.629 85.7153 194.153V182.186ZM96.8548 182.393C96.7516 179.711 95.5139 178.266 93.1416 178.266C90.7693 178.266 89.5316 179.711 89.4285 182.393V193.947C89.4285 196.732 90.6662 198.074 93.1416 198.074C95.5139 198.074 96.7516 196.629 96.8548 193.947V182.393Z" fill="#64A3FF"/>
<path opacity="0.08" d="M91.4915 216.849L87.7783 219.635V215.508L91.4915 212.723H95.2046V239.855H91.4915V216.849Z" fill="#64A3FF"/>
<path opacity="0.08" d="M91.4915 254.916L87.7783 257.702V253.575L91.4915 250.79H95.2046V277.922H91.4915V254.916Z" fill="#64A3FF"/>
<path opacity="0.08" d="M91.4915 293.087L87.7783 295.872V291.746L91.4915 288.96H95.2046V316.092H91.4915V293.087Z" fill="#64A3FF"/>
<path opacity="0.08" d="M85.7153 334.662C85.7153 332.186 86.5405 330.226 88.0876 328.885C89.5316 327.543 91.1819 326.924 93.2448 326.924C95.3076 326.924 97.061 327.543 98.505 328.885C99.949 330.226 100.671 332.186 100.774 334.662V346.629C100.774 349.105 99.949 351.065 98.505 352.406C97.061 353.747 95.3076 354.469 93.2448 354.469C91.285 354.469 89.5316 353.747 88.0876 352.406C86.5405 351.065 85.8185 349.105 85.7153 346.629V334.662ZM96.8548 334.868C96.7516 332.186 95.5139 330.741 93.1416 330.741C90.7693 330.741 89.5316 332.186 89.4285 334.868V346.422C89.4285 349.208 90.6662 350.549 93.1416 350.549C95.5139 350.549 96.7516 349.105 96.8548 346.422V334.868Z" fill="#64A3FF"/>
<path opacity="0.08" d="M85.7153 372.729C85.7153 370.253 86.5405 368.293 88.0876 366.952C89.5316 365.611 91.1819 364.992 93.2448 364.992C95.3076 364.992 97.061 365.611 98.505 366.952C99.949 368.293 100.671 370.253 100.774 372.729V384.696C100.774 387.172 99.949 389.132 98.505 390.473C97.061 391.814 95.3076 392.536 93.2448 392.536C91.285 392.536 89.5316 391.814 88.0876 390.473C86.5405 389.132 85.8185 387.172 85.7153 384.696V372.729ZM96.8548 373.038C96.7516 370.356 95.5139 368.912 93.1416 368.912C90.7693 368.912 89.5316 370.356 89.4285 373.038V384.593C89.4285 387.378 90.6662 388.719 93.1416 388.719C95.5139 388.719 96.7516 387.275 96.8548 384.593V373.038Z" fill="#64A3FF"/>
<path opacity="0.08" d="M91.4915 407.392L87.7783 410.177V406.051L91.4915 403.265H95.2046V430.397H91.4915V407.392Z" fill="#64A3FF"/>
<path opacity="0.08" d="M91.4915 445.562L87.7783 448.348V444.221L91.4915 441.436H95.2046V468.568H91.4915V445.562Z" fill="#64A3FF"/>
<path opacity="0.08" d="M91.4915 483.629L87.7783 486.415V482.288L91.4915 479.503H95.2046V506.635H91.4915V483.629Z" fill="#64A3FF"/>
<path opacity="0.08" d="M85.7153 525.204C85.7153 522.728 86.5405 520.768 88.0876 519.427C89.5316 518.086 91.1819 517.467 93.2448 517.467C95.3076 517.467 97.061 518.086 98.505 519.427C99.949 520.768 100.671 522.728 100.774 525.204V537.171C100.774 539.647 99.949 541.607 98.505 542.948C97.061 544.29 95.3076 545.012 93.2448 545.012C91.285 545.012 89.5316 544.29 88.0876 542.948C86.5405 541.607 85.8185 539.647 85.7153 537.171V525.204ZM96.8548 525.411C96.7516 522.728 95.5139 521.284 93.1416 521.284C90.7693 521.284 89.5316 522.728 89.4285 525.411V536.965C89.4285 539.75 90.6662 541.091 93.1416 541.091C95.5139 541.091 96.7516 539.647 96.8548 536.965V525.411Z" fill="#64A3FF"/>
<path opacity="0.08" d="M91.4915 559.867L87.7783 562.653V558.526L91.4915 555.741H95.2046V582.873H91.4915V559.867Z" fill="#64A3FF"/>
<path opacity="0.08" d="M85.7153 601.442C85.7153 598.966 86.5405 597.006 88.0876 595.665C89.5316 594.324 91.1819 593.705 93.2448 593.705C95.3076 593.705 97.061 594.324 98.505 595.665C99.949 597.006 100.671 598.966 100.774 601.442V613.409C100.774 615.885 99.949 617.845 98.505 619.186C97.061 620.527 95.3076 621.249 93.2448 621.249C91.285 621.249 89.5316 620.527 88.0876 619.186C86.5405 617.845 85.8185 615.885 85.7153 613.409V601.442ZM96.8548 601.648C96.7516 598.966 95.5139 597.522 93.1416 597.522C90.7693 597.522 89.5316 598.966 89.4285 601.648V613.202C89.4285 615.988 90.6662 617.329 93.1416 617.329C95.5139 617.329 96.7516 615.885 96.8548 613.202V601.648Z" fill="#64A3FF"/>
<path opacity="0.08" d="M85.7153 639.509C85.7153 637.033 86.5405 635.073 88.0876 633.732C89.5316 632.391 91.1819 631.772 93.2448 631.772C95.3076 631.772 97.061 632.391 98.505 633.732C99.949 635.073 100.671 637.033 100.774 639.509V651.476C100.774 653.952 99.949 655.912 98.505 657.253C97.061 658.594 95.3076 659.317 93.2448 659.317C91.285 659.317 89.5316 658.594 88.0876 657.253C86.5405 655.912 85.8185 653.952 85.7153 651.476V639.509ZM96.8548 639.819C96.7516 637.136 95.5139 635.692 93.1416 635.692C90.7693 635.692 89.5316 637.136 89.4285 639.819V651.373C89.4285 654.158 90.6662 655.5 93.1416 655.5C95.5139 655.5 96.7516 654.055 96.8548 651.373V639.819Z" fill="#64A3FF"/>
<path opacity="0.08" d="M85.7153 677.68C85.7153 675.204 86.5405 673.244 88.0876 671.902C89.5316 670.561 91.1819 669.942 93.2448 669.942C95.3076 669.942 97.061 670.561 98.505 671.902C99.949 673.244 100.671 675.204 100.774 677.68V689.647C100.774 692.122 99.949 694.083 98.505 695.424C97.061 696.765 95.3076 697.487 93.2448 697.487C91.285 697.487 89.5316 696.765 88.0876 695.424C86.5405 694.083 85.8185 692.122 85.7153 689.647V677.68ZM96.8548 677.886C96.7516 675.204 95.5139 673.759 93.1416 673.759C90.7693 673.759 89.5316 675.204 89.4285 677.886V689.44C89.4285 692.226 90.6662 693.567 93.1416 693.567C95.5139 693.567 96.7516 692.122 96.8548 689.44V677.886Z" fill="#64A3FF"/>
<path opacity="0.08" d="M91.4915 712.342L87.7783 715.128V711.001L91.4915 708.216H95.2046V735.348H91.4915V712.342Z" fill="#64A3FF"/>
<path opacity="0.08" d="M91.4915 750.41L87.7783 753.195V749.069L91.4915 746.283H95.2046V773.415H91.4915V750.41Z" fill="#64A3FF"/>
<path opacity="0.08" d="M85.7153 791.984C85.7153 789.509 86.5405 787.548 88.0876 786.207C89.5316 784.866 91.1819 784.247 93.2448 784.247C95.3076 784.247 97.061 784.866 98.505 786.207C99.949 787.548 100.671 789.509 100.774 791.984V803.951C100.774 806.427 99.949 808.387 98.505 809.729C97.061 811.07 95.3076 811.792 93.2448 811.792C91.285 811.792 89.5316 811.07 88.0876 809.729C86.5405 808.387 85.8185 806.427 85.7153 803.951V791.984ZM96.8548 792.191C96.7516 789.509 95.5139 788.064 93.1416 788.064C90.7693 788.064 89.5316 789.509 89.4285 792.191V803.745C89.4285 806.53 90.6662 807.872 93.1416 807.872C95.5139 807.872 96.7516 806.427 96.8548 803.745V792.191Z" fill="#64A3FF"/>
<path opacity="0.08" d="M85.7153 830.155C85.7153 827.679 86.5405 825.719 88.0876 824.378C89.5316 823.037 91.1819 822.418 93.2448 822.418C95.3076 822.418 97.061 823.037 98.505 824.378C99.949 825.719 100.671 827.679 100.774 830.155V842.122C100.774 844.598 99.949 846.558 98.505 847.899C97.061 849.24 95.3076 849.962 93.2448 849.962C91.285 849.962 89.5316 849.24 88.0876 847.899C86.5405 846.558 85.8185 844.598 85.7153 842.122V830.155ZM96.8548 830.361C96.7516 827.679 95.5139 826.235 93.1416 826.235C90.7693 826.235 89.5316 827.679 89.4285 830.361V841.915C89.4285 844.701 90.6662 846.042 93.1416 846.042C95.5139 846.042 96.7516 844.598 96.8548 841.915V830.361Z" fill="#64A3FF"/>
<path opacity="0.08" d="M91.4915 864.715L87.7783 867.5V863.373L91.4915 860.588H95.2046V887.72H91.4915V864.715Z" fill="#64A3FF"/>
<path opacity="0.08" d="M85.7153 906.289C85.7153 903.813 86.5405 901.853 88.0876 900.512C89.5316 899.171 91.1819 898.552 93.2448 898.552C95.3076 898.552 97.061 899.171 98.505 900.512C99.949 901.853 100.671 903.813 100.774 906.289V918.256C100.774 920.732 99.949 922.692 98.505 924.033C97.061 925.375 95.3076 926.097 93.2448 926.097C91.285 926.097 89.5316 925.375 88.0876 924.033C86.5405 922.692 85.8185 920.732 85.7153 918.256V906.289ZM96.8548 906.599C96.7516 903.917 95.5139 902.472 93.1416 902.472C90.7693 902.472 89.5316 903.917 89.4285 906.599V918.153C89.4285 920.939 90.6662 922.28 93.1416 922.28C95.5139 922.28 96.7516 920.835 96.8548 918.153V906.599Z" fill="#64A3FF"/>
<path opacity="0.08" d="M91.4915 940.952L87.7783 943.738V939.611L91.4915 936.826H95.2046V963.958H91.4915V940.952Z" fill="#64A3FF"/>
<path opacity="0.08" d="M85.7153 982.527C85.7153 980.051 86.5405 978.091 88.0876 976.75C89.5316 975.409 91.1819 974.79 93.2448 974.79C95.3076 974.79 97.061 975.409 98.505 976.75C99.949 978.091 100.671 980.051 100.774 982.527V994.494C100.774 996.97 99.949 998.93 98.505 1000.27C97.061 1001.61 95.3076 1002.33 93.2448 1002.33C91.285 1002.33 89.5316 1001.61 88.0876 1000.27C86.5405 998.93 85.8185 996.97 85.7153 994.494V982.527ZM96.8548 982.837C96.7516 980.154 95.5139 978.71 93.1416 978.71C90.7693 978.71 89.5316 980.154 89.4285 982.837V994.391C89.4285 997.176 90.6662 998.517 93.1416 998.517C95.5139 998.517 96.7516 997.073 96.8548 994.391V982.837Z" fill="#64A3FF"/>
</g>
<g opacity="0.25">
<path opacity="0.25" d="M155.543 -9.38795C155.543 -11.6575 156.265 -13.4113 157.709 -14.7524C159.05 -15.9904 160.597 -16.6094 162.454 -16.6094C164.31 -16.6094 165.96 -15.9904 167.198 -14.7524C168.539 -13.5145 169.261 -11.7607 169.261 -9.38795V1.54736C169.261 3.81695 168.539 5.57073 167.198 6.80869C165.857 8.04665 164.31 8.66562 162.454 8.66562C160.597 8.66562 159.05 8.04665 157.709 6.80869C156.265 5.57073 155.543 3.81695 155.543 1.54736V-9.38795ZM165.754 -9.18162C165.651 -11.6575 164.516 -12.9987 162.35 -12.9987C160.081 -12.9987 158.947 -11.6575 158.947 -9.18162V1.4442C158.947 3.92011 160.081 5.26124 162.35 5.26124C164.516 5.26124 165.651 3.92011 165.754 1.4442V-9.18162Z" fill="#64A3FF"/>
<path opacity="0.25" d="M160.803 22.4894L157.399 25.0685V21.2514L160.803 18.6724H164.207V43.6379H160.803V22.4894Z" fill="#64A3FF"/>
<path opacity="0.25" d="M155.543 60.6599C155.543 58.3903 156.265 56.6365 157.709 55.2954C159.05 54.0575 160.597 53.4385 162.454 53.4385C164.31 53.4385 165.96 54.0575 167.198 55.2954C168.539 56.5334 169.261 58.2871 169.261 60.6599V71.6984C169.261 73.968 168.539 75.7217 167.198 76.9597C165.857 78.1977 164.31 78.8166 162.454 78.8166C160.597 78.8166 159.05 78.1977 157.709 76.9597C156.265 75.7217 155.543 73.968 155.543 71.6984V60.6599ZM165.754 60.8662C165.651 58.3903 164.516 57.0492 162.35 57.0492C160.081 57.0492 158.947 58.3903 158.947 60.8662V71.492C158.947 73.968 160.081 75.3091 162.35 75.3091C164.516 75.3091 165.651 73.968 165.754 71.492V60.8662Z" fill="#64A3FF"/>
<path opacity="0.25" d="M155.543 95.7353C155.543 93.4658 156.265 91.712 157.709 90.3709C159.05 89.1329 160.597 88.5139 162.454 88.5139C164.31 88.5139 165.96 89.1329 167.198 90.3709C168.539 91.6088 169.261 93.3626 169.261 95.7353V106.774C169.261 109.043 168.539 110.797 167.198 112.035C165.857 113.273 164.31 113.892 162.454 113.892C160.597 113.892 159.05 113.273 157.709 112.035C156.265 110.797 155.543 109.043 155.543 106.774V95.7353ZM165.754 95.9417C165.651 93.4658 164.516 92.1246 162.35 92.1246C160.081 92.1246 158.947 93.4658 158.947 95.9417V106.567C158.947 109.043 160.081 110.385 162.35 110.385C164.516 110.385 165.651 109.043 165.754 106.567V95.9417Z" fill="#64A3FF"/>
<path opacity="0.25" d="M160.803 127.613L157.399 130.192V126.375L160.803 123.796H164.207V148.761H160.803V127.613Z" fill="#64A3FF"/>
<path opacity="0.25" d="M155.543 165.783C155.543 163.514 156.265 161.76 157.709 160.419C159.05 159.181 160.597 158.562 162.454 158.562C164.31 158.562 165.96 159.181 167.198 160.419C168.539 161.657 169.261 163.411 169.261 165.783V176.822C169.261 179.091 168.539 180.845 167.198 182.083C165.857 183.321 164.31 183.94 162.454 183.94C160.597 183.94 159.05 183.321 157.709 182.083C156.265 180.845 155.543 179.091 155.543 176.822V165.783ZM165.754 165.99C165.651 163.514 164.516 162.173 162.35 162.173C160.081 162.173 158.947 163.514 158.947 165.99V176.615C158.947 179.091 160.081 180.433 162.35 180.433C164.516 180.433 165.651 179.091 165.754 176.615V165.99Z" fill="#64A3FF"/>
<path opacity="0.25" d="M155.543 200.859C155.543 198.589 156.265 196.835 157.709 195.494C159.05 194.256 160.597 193.637 162.454 193.637C164.31 193.637 165.96 194.256 167.198 195.494C168.539 196.732 169.261 198.486 169.261 200.859V211.897C169.261 214.167 168.539 215.921 167.198 217.159C165.857 218.397 164.31 219.016 162.454 219.016C160.597 219.016 159.05 218.397 157.709 217.159C156.265 215.921 155.543 214.167 155.543 211.897V200.859ZM165.754 201.065C165.651 198.589 164.516 197.248 162.35 197.248C160.081 197.248 158.947 198.589 158.947 201.065V211.691C158.947 214.167 160.081 215.508 162.35 215.508C164.516 215.508 165.651 214.167 165.754 211.691V201.065Z" fill="#64A3FF"/>
<path opacity="0.25" d="M160.803 232.736L157.399 235.315V231.498L160.803 228.919H164.207V253.885H160.803V232.736Z" fill="#64A3FF"/>
<path opacity="0.25" d="M155.543 270.907C155.543 268.637 156.265 266.883 157.709 265.542C159.05 264.304 160.597 263.685 162.454 263.685C164.31 263.685 165.96 264.304 167.198 265.542C168.539 266.78 169.261 268.534 169.261 270.907V281.945C169.261 284.215 168.539 285.968 167.198 287.206C165.857 288.444 164.31 289.063 162.454 289.063C160.597 289.063 159.05 288.444 157.709 287.206C156.265 285.968 155.543 284.215 155.543 281.945V270.907ZM165.754 271.216C165.651 268.74 164.516 267.399 162.35 267.399C160.081 267.399 158.947 268.74 158.947 271.216V281.842C158.947 284.318 160.081 285.659 162.35 285.659C164.516 285.659 165.651 284.318 165.754 281.842V271.216Z" fill="#64A3FF"/>
<path opacity="0.25" d="M160.803 302.784L157.399 305.363V301.546L160.803 298.967H164.207V323.933H160.803V302.784Z" fill="#64A3FF"/>
<path opacity="0.25" d="M160.803 337.86L157.399 340.439V336.622L160.803 334.042H164.207V359.008H160.803V337.86Z" fill="#64A3FF"/>
<path opacity="0.25" d="M160.803 372.935L157.399 375.514V371.697L160.803 369.118H164.207V394.084H160.803V372.935Z" fill="#64A3FF"/>
<path opacity="0.25" d="M155.543 411.106C155.543 408.836 156.265 407.082 157.709 405.741C159.05 404.503 160.597 403.884 162.454 403.884C164.31 403.884 165.96 404.503 167.198 405.741C168.539 406.979 169.261 408.733 169.261 411.106V422.144C169.261 424.414 168.539 426.167 167.198 427.405C165.857 428.643 164.31 429.262 162.454 429.262C160.597 429.262 159.05 428.643 157.709 427.405C156.265 426.167 155.543 424.414 155.543 422.144V411.106ZM165.754 411.312C165.651 408.836 164.516 407.495 162.35 407.495C160.081 407.495 158.947 408.836 158.947 411.312V421.938C158.947 424.414 160.081 425.755 162.35 425.755C164.516 425.755 165.651 424.414 165.754 421.938V411.312Z" fill="#64A3FF"/>
<path opacity="0.25" d="M160.803 442.983L157.399 445.562V441.745L160.803 439.166H164.207V464.131H160.803V442.983Z" fill="#64A3FF"/>
<path opacity="0.25" d="M155.543 481.257C155.543 478.987 156.265 477.233 157.709 475.892C159.05 474.654 160.597 474.035 162.454 474.035C164.31 474.035 165.96 474.654 167.198 475.892C168.539 477.13 169.261 478.884 169.261 481.257V492.295C169.261 494.565 168.539 496.318 167.198 497.556C165.857 498.794 164.31 499.413 162.454 499.413C160.597 499.413 159.05 498.794 157.709 497.556C156.265 496.318 155.543 494.565 155.543 492.295V481.257ZM165.754 481.463C165.651 478.987 164.516 477.646 162.35 477.646C160.081 477.646 158.947 478.987 158.947 481.463V492.089C158.947 494.565 160.081 495.906 162.35 495.906C164.516 495.906 165.651 494.565 165.754 492.089V481.463Z" fill="#64A3FF"/>
<path opacity="0.25" d="M155.543 516.229C155.543 513.959 156.265 512.206 157.709 510.864C159.05 509.626 160.597 509.007 162.454 509.007C164.31 509.007 165.96 509.626 167.198 510.864C168.539 512.102 169.261 513.856 169.261 516.229V527.267C169.261 529.537 168.539 531.291 167.198 532.529C165.857 533.767 164.31 534.386 162.454 534.386C160.597 534.386 159.05 533.767 157.709 532.529C156.265 531.291 155.543 529.537 155.543 527.267V516.229ZM165.754 516.538C165.651 514.062 164.516 512.721 162.35 512.721C160.081 512.721 158.947 514.062 158.947 516.538V527.164C158.947 529.64 160.081 530.981 162.35 530.981C164.516 530.981 165.651 529.64 165.754 527.164V516.538Z" fill="#64A3FF"/>
<path opacity="0.25" d="M155.543 551.304C155.543 549.035 156.265 547.281 157.709 545.94C159.05 544.702 160.597 544.083 162.454 544.083C164.31 544.083 165.96 544.702 167.198 545.94C168.539 547.178 169.261 548.932 169.261 551.304V562.343C169.261 564.612 168.539 566.366 167.198 567.604C165.857 568.842 164.31 569.461 162.454 569.461C160.597 569.461 159.05 568.842 157.709 567.604C156.265 566.366 155.543 564.612 155.543 562.343V551.304ZM165.754 551.511C165.651 549.035 164.516 547.694 162.35 547.694C160.081 547.694 158.947 549.035 158.947 551.511V562.137C158.947 564.613 160.081 565.954 162.35 565.954C164.516 565.954 165.651 564.613 165.754 562.137V551.511Z" fill="#64A3FF"/>
<path opacity="0.25" d="M155.543 586.38C155.543 584.11 156.265 582.356 157.709 581.015C159.05 579.777 160.597 579.158 162.454 579.158C164.31 579.158 165.96 579.777 167.198 581.015C168.539 582.253 169.261 584.007 169.261 586.38V597.418C169.261 599.688 168.539 601.442 167.198 602.68C165.857 603.918 164.31 604.537 162.454 604.537C160.597 604.537 159.05 603.918 157.709 602.68C156.265 601.442 155.543 599.688 155.543 597.418V586.38ZM165.754 586.586C165.651 584.11 164.516 582.769 162.35 582.769C160.081 582.769 158.947 584.11 158.947 586.586V597.212C158.947 599.688 160.081 601.029 162.35 601.029C164.516 601.029 165.651 599.688 165.754 597.212V586.586Z" fill="#64A3FF"/>
<path opacity="0.25" d="M160.803 618.257L157.399 620.836V617.019L160.803 614.44H164.207V639.406H160.803V618.257Z" fill="#64A3FF"/>
<path opacity="0.25" d="M155.543 656.428C155.543 654.158 156.265 652.404 157.709 651.063C159.05 649.825 160.597 649.206 162.454 649.206C164.31 649.206 165.96 649.825 167.198 651.063C168.539 652.301 169.261 654.055 169.261 656.428V667.466C169.261 669.736 168.539 671.49 167.198 672.727C165.857 673.965 164.31 674.584 162.454 674.584C160.597 674.584 159.05 673.965 157.709 672.727C156.265 671.49 155.543 669.736 155.543 667.466V656.428ZM165.754 656.634C165.651 654.158 164.516 652.817 162.35 652.817C160.081 652.817 158.947 654.158 158.947 656.634V667.26C158.947 669.736 160.081 671.077 162.35 671.077C164.516 671.077 165.651 669.736 165.754 667.26V656.634Z" fill="#64A3FF"/>
</g>
<g opacity="0.08">
<path opacity="0.08" d="M280.552 -1.54749C280.552 -5.36453 281.79 -8.25311 284.059 -10.3164C286.225 -12.3796 288.804 -13.3081 291.795 -13.3081C294.889 -13.3081 297.571 -12.2765 299.737 -10.2132C301.903 -8.14994 303.037 -5.26137 303.14 -1.44433V16.7124C303.037 20.5294 301.903 23.418 299.737 25.4813C297.571 27.5445 294.889 28.5762 291.795 28.5762C288.804 28.5762 286.225 27.5445 284.059 25.4813C281.79 23.418 280.552 20.5294 280.552 16.7124V-1.54749ZM297.571 -1.238C297.468 -5.36453 295.611 -7.4278 291.898 -7.53096C288.288 -7.4278 286.328 -5.36453 286.328 -1.238V16.1966C286.431 20.3231 288.288 22.4895 291.898 22.4895C295.508 22.4895 297.364 20.3231 297.571 16.1966V-1.238Z" fill="#64A3FF"/>
<path opacity="0.08" d="M289.319 50.9625L283.646 55.2954V49.0024L289.319 44.7727H294.992V85.9348H289.319V50.9625Z" fill="#64A3FF"/>
<path opacity="0.08" d="M280.552 113.892C280.552 110.075 281.79 107.187 284.059 105.123C286.225 103.06 288.804 102.132 291.795 102.132C294.889 102.132 297.571 103.163 299.737 105.226C301.903 107.29 303.037 110.178 303.14 113.995V132.049C303.037 135.866 301.903 138.755 299.737 140.818C297.571 142.881 294.889 143.913 291.795 143.913C288.804 143.913 286.225 142.881 284.059 140.818C281.79 138.755 280.552 135.866 280.552 132.049V113.892ZM297.571 114.305C297.468 110.178 295.611 108.115 291.898 108.012C288.288 108.115 286.328 110.178 286.328 114.305V131.739C286.431 135.866 288.288 138.032 291.898 138.032C295.508 138.032 297.364 135.866 297.571 131.739V114.305Z" fill="#64A3FF"/>
<path opacity="0.08" d="M280.552 171.664C280.552 167.847 281.79 164.958 284.059 162.895C286.225 160.832 288.804 159.903 291.795 159.903C294.889 159.903 297.571 160.935 299.737 162.998C301.903 165.061 303.037 167.95 303.14 171.767V189.82C303.037 193.637 301.903 196.526 299.737 198.589C297.571 200.653 294.889 201.684 291.795 201.684C288.804 201.684 286.225 200.653 284.059 198.589C281.79 196.526 280.552 193.637 280.552 189.82V171.664ZM297.571 172.076C297.468 167.95 295.611 165.887 291.898 165.783C288.288 165.887 286.328 167.95 286.328 172.076V189.511C286.431 193.637 288.288 195.804 291.898 195.804C295.508 195.804 297.364 193.637 297.571 189.511V172.076Z" fill="#64A3FF"/>
<path opacity="0.08" d="M289.319 224.174L283.646 228.507V222.214L289.319 217.984H294.992V259.146H289.319V224.174Z" fill="#64A3FF"/>
<path opacity="0.08" d="M280.552 287.207C280.552 283.389 281.79 280.501 284.059 278.438C286.225 276.374 288.804 275.446 291.795 275.446C294.889 275.446 297.571 276.478 299.737 278.541C301.903 280.604 303.037 283.493 303.14 287.31V305.363C303.037 309.18 301.903 312.069 299.737 314.132C297.571 316.195 294.889 317.227 291.795 317.227C288.804 317.227 286.225 316.195 284.059 314.132C281.79 312.069 280.552 309.18 280.552 305.363V287.207ZM297.571 287.516C297.468 283.39 295.611 281.326 291.898 281.223C288.288 281.326 286.328 283.39 286.328 287.516V304.951C286.431 309.077 288.288 311.244 291.898 311.244C295.508 311.244 297.364 309.077 297.571 304.951V287.516Z" fill="#64A3FF"/>
<path opacity="0.08" d="M280.552 344.978C280.552 341.161 281.79 338.272 284.059 336.209C286.225 334.146 288.804 333.217 291.795 333.217C294.889 333.217 297.571 334.249 299.737 336.312C301.903 338.375 303.037 341.264 303.14 345.081V363.135C303.037 366.952 301.903 369.84 299.737 371.904C297.571 373.967 294.889 374.998 291.795 374.998C288.804 374.998 286.225 373.967 284.059 371.904C281.79 369.84 280.552 366.952 280.552 363.135V344.978ZM297.571 345.287C297.468 341.161 295.611 339.098 291.898 338.994C288.288 339.098 286.328 341.161 286.328 345.287V362.722C286.431 366.849 288.288 369.015 291.898 369.015C295.508 369.015 297.364 366.849 297.571 362.722V345.287Z" fill="#64A3FF"/>
<path opacity="0.08" d="M289.319 397.488L283.646 401.821V395.528L289.319 391.298H294.992V432.46H289.319V397.488Z" fill="#64A3FF"/>
<path opacity="0.08" d="M280.552 460.418C280.552 456.601 281.79 453.712 284.059 451.649C286.225 449.585 288.804 448.657 291.795 448.657C294.889 448.657 297.571 449.689 299.737 451.752C301.903 453.815 303.037 456.704 303.14 460.521V478.678C303.037 482.495 301.903 485.383 299.737 487.446C297.571 489.51 294.889 490.541 291.795 490.541C288.804 490.541 286.225 489.51 284.059 487.446C281.79 485.383 280.552 482.495 280.552 478.678V460.418ZM297.571 460.83C297.468 456.704 295.611 454.64 291.898 454.537C288.288 454.64 286.328 456.704 286.328 460.83V478.265C286.431 482.391 288.288 484.558 291.898 484.558C295.508 484.558 297.364 482.391 297.571 478.265V460.83Z" fill="#64A3FF"/>
<path opacity="0.08" d="M289.319 512.928L283.646 517.261V510.968L289.319 506.738H294.992V547.9H289.319V512.928Z" fill="#64A3FF"/>
<path opacity="0.08" d="M289.319 570.699L283.646 575.032V568.739L289.319 564.509H294.992V605.568H289.319V570.699Z" fill="#64A3FF"/>
<path opacity="0.08" d="M289.319 628.471L283.646 632.803V626.51L289.319 622.281H294.992V663.34H289.319V628.471Z" fill="#64A3FF"/>
<path opacity="0.08" d="M280.552 691.503C280.552 687.686 281.79 684.798 284.059 682.734C286.225 680.671 288.804 679.743 291.795 679.743C294.889 679.743 297.571 680.774 299.737 682.838C301.903 684.901 303.037 687.789 303.14 691.606V709.763C303.037 713.58 301.903 716.469 299.737 718.532C297.571 720.595 294.889 721.627 291.795 721.627C288.804 721.627 286.225 720.595 284.059 718.532C281.79 716.469 280.552 713.58 280.552 709.763V691.503ZM297.571 691.813C297.468 687.686 295.611 685.623 291.898 685.52C288.288 685.623 286.328 687.686 286.328 691.813V709.247C286.431 713.374 288.288 715.54 291.898 715.54C295.508 715.54 297.364 713.374 297.571 709.247V691.813Z" fill="#64A3FF"/>
<path opacity="0.08" d="M289.319 744.013L283.646 748.346V742.053L289.319 737.824H294.992V778.883H289.319V744.013Z" fill="#64A3FF"/>
</g>
<g opacity="0.19">
<path opacity="0.19" d="M224.546 9.18162L222.173 11.0386V8.35631L224.546 6.60254H226.918V24.0371H224.546V9.18162Z" fill="#64A3FF"/>
<path opacity="0.19" d="M224.546 33.7344L222.173 35.5913V32.909L224.546 31.1553H226.918V48.5899H224.546V33.7344Z" fill="#64A3FF"/>
<path opacity="0.19" d="M220.833 60.4537C220.833 58.8031 221.348 57.5651 222.38 56.7398C223.308 55.9145 224.443 55.3987 225.68 55.3987C227.021 55.3987 228.156 55.8113 229.084 56.7398C230.012 57.5651 230.528 58.8031 230.528 60.4537V68.1909C230.528 69.8415 230.012 71.0795 229.084 71.9048C228.156 72.7301 227.021 73.2459 225.68 73.2459C224.443 73.2459 223.308 72.8333 222.38 71.9048C221.348 71.0795 220.936 69.8415 220.833 68.1909V60.4537ZM228.052 60.66C228.052 58.9062 227.227 57.9778 225.68 57.9778C224.133 57.9778 223.308 58.9062 223.308 60.66V68.0878C223.308 69.8415 224.133 70.77 225.68 70.77C227.227 70.77 228.052 69.8415 228.052 68.0878V60.66Z" fill="#64A3FF"/>
<path opacity="0.19" d="M220.833 85.0064C220.833 83.3558 221.348 82.1178 222.38 81.2925C223.308 80.4672 224.443 79.9514 225.68 79.9514C227.021 79.9514 228.156 80.3641 229.084 81.2925C230.012 82.1178 230.528 83.3558 230.528 85.0064V92.7437C230.528 94.3943 230.012 95.6322 229.084 96.4575C228.156 97.2828 227.021 97.7987 225.68 97.7987C224.443 97.7987 223.308 97.386 222.38 96.4575C221.348 95.6322 220.936 94.3943 220.833 92.7437V85.0064ZM228.052 85.1096C228.052 83.3558 227.227 82.4273 225.68 82.4273C224.133 82.4273 223.308 83.3558 223.308 85.1096V92.5373C223.308 94.2911 224.133 95.2196 225.68 95.2196C227.227 95.2196 228.052 94.2911 228.052 92.5373V85.1096Z" fill="#64A3FF"/>
<path opacity="0.19" d="M224.546 107.29L222.173 109.147V106.464L224.546 104.711H226.918V122.145H224.546V107.29Z" fill="#64A3FF"/>
<path opacity="0.19" d="M220.833 134.009C220.833 132.358 221.348 131.121 222.38 130.295C223.308 129.47 224.443 128.954 225.68 128.954C227.021 128.954 228.156 129.367 229.084 130.295C230.012 131.121 230.528 132.358 230.528 134.009V141.746C230.528 143.397 230.012 144.635 229.084 145.46C228.156 146.286 227.021 146.801 225.68 146.801C224.443 146.801 223.308 146.389 222.38 145.46C221.348 144.635 220.936 143.397 220.833 141.746V134.009ZM228.052 134.215C228.052 132.462 227.227 131.533 225.68 131.533C224.133 131.533 223.308 132.462 223.308 134.215V141.643C223.308 143.397 224.133 144.325 225.68 144.325C227.227 144.325 228.052 143.397 228.052 141.643V134.215Z" fill="#64A3FF"/>
<path opacity="0.19" d="M224.546 156.292L222.173 158.149V155.467L224.546 153.713H226.918V171.148H224.546V156.292Z" fill="#64A3FF"/>
<path opacity="0.19" d="M220.833 183.012C220.833 181.361 221.348 180.123 222.38 179.298C223.308 178.472 224.443 177.957 225.68 177.957C227.021 177.957 228.156 178.369 229.084 179.298C230.012 180.123 230.528 181.361 230.528 183.012V190.749C230.528 192.4 230.012 193.637 229.084 194.463C228.156 195.288 227.021 195.804 225.68 195.804C224.443 195.804 223.308 195.391 222.38 194.463C221.348 193.637 220.936 192.4 220.833 190.749V183.012ZM228.052 183.218C228.052 181.464 227.227 180.536 225.68 180.536C224.133 180.536 223.308 181.464 223.308 183.218V190.646C223.308 192.4 224.133 193.328 225.68 193.328C227.227 193.328 228.052 192.4 228.052 190.646V183.218Z" fill="#64A3FF"/>
<path opacity="0.19" d="M224.546 205.295L222.173 207.152V204.47L224.546 202.716H226.918V220.15H224.546V205.295Z" fill="#64A3FF"/>
<path opacity="0.19" d="M224.546 229.848L222.173 231.705V229.022L224.546 227.269H226.918V244.703H224.546V229.848Z" fill="#64A3FF"/>
<path opacity="0.19" d="M220.833 256.567C220.833 254.916 221.348 253.678 222.38 252.853C223.308 252.028 224.443 251.512 225.68 251.512C227.021 251.512 228.156 251.925 229.084 252.853C230.012 253.678 230.528 254.916 230.528 256.567V264.304C230.528 265.955 230.012 267.193 229.084 268.018C228.156 268.843 227.021 269.359 225.68 269.359C224.443 269.359 223.308 268.947 222.38 268.018C221.348 267.193 220.936 265.955 220.833 264.304V256.567ZM228.052 256.773C228.052 255.02 227.227 254.091 225.68 254.091C224.133 254.091 223.308 255.02 223.308 256.773V264.201C223.308 265.955 224.133 266.883 225.68 266.883C227.227 266.883 228.052 265.955 228.052 264.201V256.773Z" fill="#64A3FF"/>
<path opacity="0.19" d="M220.833 281.12C220.833 279.469 221.348 278.231 222.38 277.406C223.308 276.581 224.443 276.065 225.68 276.065C227.021 276.065 228.156 276.478 229.084 277.406C230.012 278.231 230.528 279.469 230.528 281.12V288.857C230.528 290.508 230.012 291.746 229.084 292.571C228.156 293.396 227.021 293.912 225.68 293.912C224.443 293.912 223.308 293.5 222.38 292.571C221.348 291.746 220.936 290.508 220.833 288.857V281.12ZM228.052 281.223C228.052 279.469 227.227 278.541 225.68 278.541C224.133 278.541 223.308 279.469 223.308 281.223V288.651C223.308 290.405 224.133 291.333 225.68 291.333C227.227 291.333 228.052 290.405 228.052 288.651V281.223Z" fill="#64A3FF"/>
<path opacity="0.19" d="M220.833 305.57C220.833 303.919 221.348 302.681 222.38 301.856C223.308 301.03 224.443 300.515 225.68 300.515C227.021 300.515 228.156 300.927 229.084 301.856C230.012 302.681 230.528 303.919 230.528 305.57V313.307C230.528 314.957 230.012 316.195 229.084 317.021C228.156 317.846 227.021 318.362 225.68 318.362C224.443 318.362 223.308 317.949 222.38 317.021C221.348 316.195 220.936 314.957 220.833 313.307V305.57ZM228.052 305.776C228.052 304.022 227.227 303.094 225.68 303.094C224.133 303.094 223.308 304.022 223.308 305.776V313.204C223.308 314.957 224.133 315.886 225.68 315.886C227.227 315.886 228.052 314.957 228.052 313.204V305.776Z" fill="#64A3FF"/>
<path opacity="0.19" d="M220.833 330.122C220.833 328.472 221.348 327.234 222.38 326.408C223.308 325.583 224.443 325.067 225.68 325.067C227.021 325.067 228.156 325.48 229.084 326.408C230.012 327.234 230.528 328.472 230.528 330.122V337.86C230.528 339.51 230.012 340.748 229.084 341.574C228.156 342.399 227.021 342.915 225.68 342.915C224.443 342.915 223.308 342.502 222.38 341.574C221.348 340.748 220.936 339.51 220.833 337.86V330.122ZM228.052 330.226C228.052 328.472 227.227 327.543 225.68 327.543C224.133 327.543 223.308 328.472 223.308 330.226V337.653C223.308 339.407 224.133 340.336 225.68 340.336C227.227 340.336 228.052 339.407 228.052 337.653V330.226Z" fill="#64A3FF"/>
<path opacity="0.19" d="M224.546 352.406L222.173 354.263V351.58L224.546 349.827H226.918V367.261H224.546V352.406Z" fill="#64A3FF"/>
<path opacity="0.19" d="M220.833 379.125C220.833 377.474 221.348 376.236 222.38 375.411C223.308 374.586 224.443 374.07 225.68 374.07C227.021 374.07 228.156 374.483 229.084 375.411C230.012 376.236 230.528 377.474 230.528 379.125V386.862C230.528 388.513 230.012 389.751 229.084 390.576C228.156 391.401 227.021 391.917 225.68 391.917C224.443 391.917 223.308 391.505 222.38 390.576C221.348 389.751 220.936 388.513 220.833 386.862V379.125ZM228.052 379.331C228.052 377.578 227.227 376.649 225.68 376.649C224.133 376.649 223.308 377.578 223.308 379.331V386.759C223.308 388.513 224.133 389.441 225.68 389.441C227.227 389.441 228.052 388.513 228.052 386.759V379.331Z" fill="#64A3FF"/>
<path opacity="0.19" d="M224.546 401.408L222.173 403.265V400.583L224.546 398.829H226.918V416.264H224.546V401.408Z" fill="#64A3FF"/>
<path opacity="0.19" d="M224.546 425.961L222.173 427.818V425.136L224.546 423.382H226.918V440.817H224.546V425.961Z" fill="#64A3FF"/>
<path opacity="0.19" d="M220.833 452.68C220.833 451.03 221.348 449.792 222.38 448.967C223.308 448.141 224.443 447.625 225.68 447.625C227.021 447.625 228.156 448.038 229.084 448.967C230.012 449.792 230.528 451.03 230.528 452.68V460.418C230.528 462.068 230.012 463.306 229.084 464.131C228.156 464.957 227.021 465.473 225.68 465.473C224.443 465.473 223.308 465.06 222.38 464.131C221.348 463.306 220.936 462.068 220.833 460.418V452.68ZM228.052 452.784C228.052 451.03 227.227 450.101 225.68 450.101C224.133 450.101 223.308 451.03 223.308 452.784V460.211C223.308 461.965 224.133 462.894 225.68 462.894C227.227 462.894 228.052 461.965 228.052 460.211V452.784Z" fill="#64A3FF"/>
<path opacity="0.19" d="M220.833 477.13C220.833 475.479 221.348 474.241 222.38 473.416C223.308 472.591 224.443 472.075 225.68 472.075C227.021 472.075 228.156 472.488 229.084 473.416C230.012 474.241 230.528 475.479 230.528 477.13V484.867C230.528 486.518 230.012 487.756 229.084 488.581C228.156 489.406 227.021 489.922 225.68 489.922C224.443 489.922 223.308 489.51 222.38 488.581C221.348 487.756 220.936 486.518 220.833 484.867V477.13ZM228.052 477.336C228.052 475.583 227.227 474.654 225.68 474.654C224.133 474.654 223.308 475.583 223.308 477.336V484.764C223.308 486.518 224.133 487.446 225.68 487.446C227.227 487.446 228.052 486.518 228.052 484.764V477.336Z" fill="#64A3FF"/>
<path opacity="0.19" d="M224.546 499.517L222.173 501.374V498.691L224.546 496.938H226.918V514.372H224.546V499.517Z" fill="#64A3FF"/>
<path opacity="0.19" d="M220.833 526.236C220.833 524.585 221.348 523.347 222.38 522.522C223.308 521.697 224.443 521.181 225.68 521.181C227.021 521.181 228.156 521.593 229.084 522.522C230.012 523.347 230.528 524.585 230.528 526.236V533.973C230.528 535.624 230.012 536.862 229.084 537.687C228.156 538.512 227.021 539.028 225.68 539.028C224.443 539.028 223.308 538.615 222.38 537.687C221.348 536.862 220.936 535.624 220.833 533.973V526.236ZM228.052 526.339C228.052 524.585 227.227 523.657 225.68 523.657C224.133 523.657 223.308 524.585 223.308 526.339V533.767C223.308 535.52 224.133 536.449 225.68 536.449C227.227 536.449 228.052 535.52 228.052 533.767V526.339Z" fill="#64A3FF"/>
<path opacity="0.19" d="M220.833 550.686C220.833 549.035 221.348 547.797 222.38 546.972C223.308 546.146 224.443 545.631 225.68 545.631C227.021 545.631 228.156 546.043 229.084 546.972C230.012 547.797 230.528 549.035 230.528 550.686V558.423C230.528 560.073 230.012 561.311 229.084 562.137C228.156 562.962 227.021 563.478 225.68 563.478C224.443 563.478 223.308 563.065 222.38 562.137C221.348 561.311 220.936 560.073 220.833 558.423V550.686ZM228.052 550.892C228.052 549.138 227.227 548.21 225.68 548.21C224.133 548.21 223.308 549.138 223.308 550.892V558.32C223.308 560.074 224.133 561.002 225.68 561.002C227.227 561.002 228.052 560.074 228.052 558.32V550.892Z" fill="#64A3FF"/>
<path opacity="0.19" d="M220.833 575.238C220.833 573.588 221.348 572.35 222.38 571.524C223.308 570.699 224.443 570.183 225.68 570.183C227.021 570.183 228.156 570.596 229.084 571.524C230.012 572.35 230.528 573.588 230.528 575.238V582.976C230.528 584.626 230.012 585.864 229.084 586.689C228.156 587.515 227.021 588.031 225.68 588.031C224.443 588.031 223.308 587.618 222.38 586.689C221.348 585.864 220.936 584.626 220.833 582.976V575.238ZM228.052 575.342C228.052 573.588 227.227 572.659 225.68 572.659C224.133 572.659 223.308 573.588 223.308 575.342V582.769C223.308 584.523 224.133 585.451 225.68 585.451C227.227 585.451 228.052 584.523 228.052 582.769V575.342Z" fill="#64A3FF"/>
<path opacity="0.19" d="M224.546 597.522L222.173 599.379V596.696L224.546 594.943H226.918V612.377H224.546V597.522Z" fill="#64A3FF"/>
<path opacity="0.19" d="M224.546 622.074L222.173 623.931V621.249L224.546 619.495H226.918V636.93H224.546V622.074Z" fill="#64A3FF"/>
<path opacity="0.19" d="M220.833 648.794C220.833 647.143 221.348 645.905 222.38 645.08C223.308 644.255 224.443 643.739 225.68 643.739C227.021 643.739 228.156 644.151 229.084 645.08C230.012 645.905 230.528 647.143 230.528 648.794V656.531C230.528 658.182 230.012 659.42 229.084 660.245C228.156 661.07 227.021 661.586 225.68 661.586C224.443 661.586 223.308 661.173 222.38 660.245C221.348 659.42 220.936 658.182 220.833 656.531V648.794ZM228.052 648.897C228.052 647.143 227.227 646.215 225.68 646.215C224.133 646.215 223.308 647.143 223.308 648.897V656.325C223.308 658.078 224.133 659.007 225.68 659.007C227.227 659.007 228.052 658.078 228.052 656.325V648.897Z" fill="#64A3FF"/>
<path opacity="0.19" d="M220.833 673.243C220.833 671.593 221.348 670.355 222.38 669.53C223.308 668.704 224.443 668.188 225.68 668.188C227.021 668.188 228.156 668.601 229.084 669.53C230.012 670.355 230.528 671.593 230.528 673.243V680.981C230.528 682.631 230.012 683.869 229.084 684.695C228.156 685.52 227.021 686.036 225.68 686.036C224.443 686.036 223.308 685.623 222.38 684.695C221.348 683.869 220.936 682.631 220.833 680.981V673.243ZM228.052 673.45C228.052 671.696 227.227 670.768 225.68 670.768C224.133 670.768 223.308 671.696 223.308 673.45V680.878C223.308 682.631 224.133 683.56 225.68 683.56C227.227 683.56 228.052 682.631 228.052 680.878V673.45Z" fill="#64A3FF"/>
<path opacity="0.19" d="M224.546 695.527L222.173 697.384V694.702L224.546 692.948H226.918V710.382H224.546V695.527Z" fill="#64A3FF"/>
<path opacity="0.19" d="M220.833 722.349C220.833 720.699 221.348 719.461 222.38 718.635C223.308 717.81 224.443 717.294 225.68 717.294C227.021 717.294 228.156 717.707 229.084 718.635C230.012 719.461 230.528 720.699 230.528 722.349V730.086C230.528 731.737 230.012 732.975 229.084 733.8C228.156 734.626 227.021 735.141 225.68 735.141C224.443 735.141 223.308 734.729 222.38 733.8C221.348 732.975 220.936 731.737 220.833 730.086V722.349ZM228.052 722.452C228.052 720.699 227.227 719.77 225.68 719.77C224.133 719.77 223.308 720.699 223.308 722.452V729.88C223.308 731.634 224.133 732.562 225.68 732.562C227.227 732.562 228.052 731.634 228.052 729.88V722.452Z" fill="#64A3FF"/>
<path opacity="0.19" d="M224.546 744.632L222.173 746.489V743.807L224.546 742.053H226.918V759.488H224.546V744.632Z" fill="#64A3FF"/>
<path opacity="0.19" d="M220.833 771.352C220.833 769.701 221.348 768.463 222.38 767.638C223.308 766.813 224.443 766.297 225.68 766.297C227.021 766.297 228.156 766.709 229.084 767.638C230.012 768.463 230.528 769.701 230.528 771.352V779.089C230.528 780.74 230.012 781.978 229.084 782.803C228.156 783.628 227.021 784.144 225.68 784.144C224.443 784.144 223.308 783.731 222.38 782.803C221.348 781.978 220.936 780.74 220.833 779.089V771.352ZM228.052 771.455C228.052 769.701 227.227 768.773 225.68 768.773C224.133 768.773 223.308 769.701 223.308 771.455V778.883C223.308 780.636 224.133 781.565 225.68 781.565C227.227 781.565 228.052 780.636 228.052 778.883V771.455Z" fill="#64A3FF"/>
<path opacity="0.19" d="M224.546 793.635L222.173 795.492V792.81L224.546 791.056H226.918V808.491H224.546V793.635Z" fill="#64A3FF"/>
</g>
<g opacity="0.6">
<path opacity="0.6" d="M941.389 746.593C885.692 746.593 832.47 741.744 782.342 732.047C678.684 712.033 587.918 671.18 512.521 610.623C416.495 533.56 325.213 480.122 241.049 451.752C171.943 428.54 107.066 421.938 48.2745 432.357C-16.2929 443.705 -61.8821 473.829 -88.6992 497.144C-117.785 522.316 -131.71 545.115 -131.813 545.321L-132.741 544.805C-132.638 544.599 -118.611 521.697 -89.4212 496.422C-62.5009 473.107 -16.8086 442.88 48.0682 431.429C107.066 420.906 172.046 427.509 241.358 450.824C325.626 479.193 417.113 532.735 513.139 609.901C588.331 670.355 678.993 711.104 782.549 731.118C865.372 747.108 956.551 749.894 1053.71 739.371C1219.05 721.524 1345.61 670.561 1346.95 670.045L1347.36 670.974C1346.12 671.49 1219.36 722.452 1053.92 740.3C1015.34 744.529 977.798 746.593 941.389 746.593Z" fill="#1C53AD"/>
<path opacity="0.6" d="M963.564 715.747C912.406 715.747 863.31 711.827 816.689 704.089C716.64 687.377 627.731 652.508 552.54 600.617C448.572 528.712 347.905 481.669 253.219 460.83C177.513 444.118 105.622 443.911 39.3011 460.418C-73.4341 488.375 -131.297 555.637 -131.916 556.359L-132.741 555.741C-132.638 555.534 -118.095 538.512 -89.7306 518.189C-63.6355 499.516 -20.1092 474.138 38.9917 459.386C105.416 442.88 177.513 443.086 253.323 459.799C348.008 480.741 448.881 527.886 552.953 599.791C627.937 651.682 716.743 686.448 816.689 703.161C896.625 716.572 983.987 718.429 1076.2 708.835C1233.18 692.432 1351.48 647.762 1352.62 647.349L1353.03 648.278C1351.9 648.691 1233.39 693.463 1076.3 709.866C1037.83 713.787 1000.18 715.747 963.564 715.747Z" fill="#245CB6"/>
<path opacity="0.6" d="M984.503 685.004C938.398 685.004 893.737 682.012 851.036 676.029C754.494 662.515 667.545 633.732 592.56 590.403C489.726 530.981 387.615 492.811 289.113 476.821C210.312 464.132 133.677 465.473 61.2709 481.05C-3.29655 494.977 -52.2894 517.673 -82.2008 534.179C-114.485 552.13 -131.813 566.985 -131.916 567.192L-132.638 566.366C-132.431 566.263 -115.103 551.305 -82.7165 533.251C-52.8051 516.642 -3.70912 493.946 60.8583 480.019C133.368 464.441 210.209 462.997 289.113 475.789C387.718 491.676 489.933 529.95 592.972 589.475C667.854 632.7 754.7 661.483 851.139 674.997C928.29 685.726 1011.63 686.758 1098.89 678.092C1247.52 663.237 1357.47 624.757 1358.5 624.344L1358.81 625.273C1357.67 625.685 1247.72 664.165 1098.99 679.021C1060 683.044 1021.74 685.004 984.503 685.004Z" fill="#2C65BF"/>
<path opacity="0.6" d="M1003.27 654.262C962.945 654.262 923.648 652.198 885.588 647.969C792.657 637.755 707.461 615.059 632.579 580.293C530.88 533.251 427.428 503.849 325.11 492.914C243.215 484.145 161.835 487.137 83.2401 501.889C13.2061 514.888 -41.5628 535.005 -75.1874 549.448C-111.597 565.128 -131.71 578.024 -131.916 578.127L-132.432 577.302C-132.225 577.199 -112.009 564.303 -75.4968 548.519C-41.8722 533.973 12.9998 513.856 83.0338 500.858C161.732 486.209 243.215 483.217 325.213 491.882C427.737 502.818 531.293 532.219 632.992 579.365C707.873 614.028 792.863 636.724 885.692 646.937C959.954 655.087 1039.37 655.293 1121.79 647.453C1261.96 634.145 1363.45 601.855 1364.38 601.545L1364.69 602.577C1363.66 602.886 1262.16 635.176 1121.79 648.484C1081.56 652.301 1041.85 654.262 1003.27 654.262Z" fill="#346EC8"/>
<path opacity="0.6" d="M1017.82 623.416C984.605 623.416 952.012 622.178 920.244 619.702C830.82 612.79 747.48 596.077 672.495 570.08C572.137 535.417 467.447 514.785 361.21 508.801C276.22 504.056 190.096 508.595 105.313 522.419C-39.1905 545.94 -131.091 588.65 -132.019 589.062L-132.432 588.134C-131.503 587.721 -39.4999 544.908 105.106 521.387C189.993 507.563 276.22 502.921 361.313 507.77C467.654 513.753 572.447 534.386 672.908 569.255C747.789 595.252 831.129 611.861 920.451 618.773C991.929 624.241 1067.43 623.622 1144.79 616.71C1276.6 604.949 1369.43 579.055 1370.36 578.746L1370.67 579.778C1369.74 580.087 1276.81 605.981 1144.99 617.742C1101.78 621.559 1059.38 623.416 1017.82 623.416Z" fill="#3C77D1"/>
<path opacity="0.6" d="M-132.02 599.998L-132.329 599.069C-131.298 598.76 -27.7423 563.994 127.488 541.814C218.666 528.815 309.535 522.625 397.619 523.45C507.775 524.482 613.806 536.449 712.823 559.145C787.808 576.373 869.394 586.896 955.209 590.403C1023.9 593.292 1095.38 591.745 1167.79 585.761C1291.04 575.651 1375.31 556.153 1376.14 555.947L1376.34 556.979C1375.52 557.185 1291.25 576.683 1167.89 586.793C1095.48 592.673 1023.9 594.22 955.209 591.435C869.291 587.824 787.705 577.302 712.617 560.073C613.703 537.378 507.672 525.411 397.722 524.379C309.638 523.554 218.872 529.743 127.694 542.742C-27.536 564.922 -130.988 599.688 -132.02 599.998Z" fill="#447FDB"/>
<path opacity="0.6" d="M-132.123 610.933L-132.329 609.901C-131.195 609.592 -16.0871 582.666 149.87 561.827C247.34 549.551 342.953 541.813 434.028 538.615C548.001 534.695 655.167 538.203 752.74 548.932C922.926 567.604 1084.96 562.343 1190.89 554.606C1305.69 546.249 1381.19 533.251 1381.91 533.148L1382.12 534.179C1381.4 534.283 1305.79 547.281 1190.99 555.637C1084.96 563.375 922.926 568.636 752.637 549.963C655.167 539.234 548.001 535.83 434.132 539.647C343.056 542.742 247.443 550.582 150.076 562.756C-15.8808 583.698 -130.988 610.623 -132.123 610.933Z" fill="#4C88E4"/>
<path opacity="0.6" d="M-132.123 621.868L-132.329 620.837C-127.275 620.011 376.165 543.361 792.553 538.822C1118.79 535.211 1385.11 510.555 1387.79 510.349L1387.89 511.38C1385.21 511.587 1118.9 536.243 792.553 539.853C376.268 544.393 -127.069 621.043 -132.123 621.868Z" fill="#5491ED"/>
<path opacity="0.6" d="M-132.226 632.7L-132.329 631.669C-126.863 631.153 421.857 583.491 832.366 528.609C1002.96 505.81 1146.54 495.803 1236.79 491.47C1334.67 486.724 1392.95 487.446 1393.57 487.446V488.478C1392.95 488.478 1334.77 487.756 1236.89 492.501C1146.54 496.834 1003.17 506.841 832.572 529.64C422.064 584.523 -126.656 632.288 -132.226 632.7Z" fill="#5C9AF6"/>
<path opacity="0.6" d="M-132.226 643.636V642.604C-130.782 642.604 18.7756 637.755 216.397 620.218C398.754 603.918 660.634 573.175 872.386 518.499C966.452 494.255 1110.13 464.338 1259.69 459.696C1349.22 456.91 1399.03 464.647 1399.55 464.751L1399.34 465.782C1398.83 465.679 1349.11 458.045 1259.69 460.83C1177.17 463.409 1042.98 475.686 872.592 519.633C660.737 574.31 398.857 605.156 216.397 621.352C18.7756 638.89 -130.678 643.636 -132.226 643.636Z" fill="#64A3FF"/>
</g>
<g opacity="0.53">
<path opacity="0.06" d="M19.8066 960.45H-30.7334V1011H19.8066V960.45Z" fill="#64A3FF"/>
<path opacity="0.16" d="M19.8066 902.885H-30.7334V953.435H19.8066V902.885Z" fill="#64A3FF"/>
<path opacity="0.06" d="M19.8066 845.217H-30.7334V895.767H19.8066V845.217Z" fill="#64A3FF"/>
<path opacity="0.16" d="M19.8066 787.652H-30.7334V838.202H19.8066V787.652Z" fill="#64A3FF"/>
<path opacity="0.1" d="M19.8066 730.086H-30.7334V780.636H19.8066V730.086Z" fill="#64A3FF"/>
<path opacity="0.16" d="M19.8066 672.521H-30.7334V723.071H19.8066V672.521Z" fill="#64A3FF"/>
<path opacity="0.16" d="M19.8066 614.853H-30.7334V665.403H19.8066V614.853Z" fill="#64A3FF"/>
<path opacity="0.16" d="M19.8066 557.288H-30.7334V607.838H19.8066V557.288Z" fill="#64A3FF"/>
<path opacity="0.1" d="M19.8066 499.723H-30.7334V550.273H19.8066V499.723Z" fill="#64A3FF"/>
<path opacity="0.06" d="M19.8066 442.158H-30.7334V492.708H19.8066V442.158Z" fill="#64A3FF"/>
<path opacity="0.16" d="M77.6699 960.45H27.1299V1011H77.6699V960.45Z" fill="#64A3FF"/>
<path opacity="0.1" d="M77.6699 902.885H27.1299V953.435H77.6699V902.885Z" fill="#64A3FF"/>
<path opacity="0.16" d="M77.6699 845.217H27.1299V895.767H77.6699V845.217Z" fill="#64A3FF"/>
<path opacity="0.1" d="M77.6699 787.652H27.1299V838.202H77.6699V787.652Z" fill="#64A3FF"/>
<path opacity="0.16" d="M77.6699 672.521H27.1299V723.071H77.6699V672.521Z" fill="#64A3FF"/>
<path opacity="0.1" d="M77.6699 614.853H27.1299V665.403H77.6699V614.853Z" fill="#64A3FF"/>
<path opacity="0.16" d="M77.6699 557.288H27.1299V607.838H77.6699V557.288Z" fill="#64A3FF"/>
<path opacity="0.16" d="M135.43 960.45H84.8901V1011H135.43V960.45Z" fill="#64A3FF"/>
<path opacity="0.16" d="M135.43 902.885H84.8901V953.435H135.43V902.885Z" fill="#64A3FF"/>
<path opacity="0.16" d="M135.43 845.217H84.8901V895.767H135.43V845.217Z" fill="#64A3FF"/>
<path opacity="0.16" d="M135.43 787.652H84.8901V838.202H135.43V787.652Z" fill="#64A3FF"/>
<path opacity="0.16" d="M135.43 730.086H84.8901V780.636H135.43V730.086Z" fill="#64A3FF"/>
<path opacity="0.16" d="M135.43 672.521H84.8901V723.071H135.43V672.521Z" fill="#64A3FF"/>
<path opacity="0.16" d="M135.43 614.853H84.8901V665.403H135.43V614.853Z" fill="#64A3FF"/>
<path opacity="0.1" d="M193.19 960.45H142.65V1011H193.19V960.45Z" fill="#64A3FF"/>
<path opacity="0.16" d="M193.19 902.885H142.65V953.435H193.19V902.885Z" fill="#64A3FF"/>
<path opacity="0.16" d="M193.19 845.217H142.65V895.767H193.19V845.217Z" fill="#64A3FF"/>
<path opacity="0.1" d="M193.19 787.652H142.65V838.202H193.19V787.652Z" fill="#64A3FF"/>
<path opacity="0.16" d="M193.19 730.086H142.65V780.636H193.19V730.086Z" fill="#64A3FF"/>
<path opacity="0.06" d="M193.19 672.521H142.65V723.071H193.19V672.521Z" fill="#64A3FF"/>
<path opacity="0.16" d="M193.19 614.853H142.65V665.403H193.19V614.853Z" fill="#64A3FF"/>
<path opacity="0.16" d="M193.19 557.288H142.65V607.838H193.19V557.288Z" fill="#64A3FF"/>
<path opacity="0.16" d="M250.95 960.45H200.41V1011H250.95V960.45Z" fill="#64A3FF"/>
<path opacity="0.06" d="M250.95 902.885H200.41V953.435H250.95V902.885Z" fill="#64A3FF"/>
<path opacity="0.16" d="M250.95 845.217H200.41V895.767H250.95V845.217Z" fill="#64A3FF"/>
<path opacity="0.16" d="M250.95 787.652H200.41V838.202H250.95V787.652Z" fill="#64A3FF"/>
<path opacity="0.06" d="M250.95 730.086H200.41V780.636H250.95V730.086Z" fill="#64A3FF"/>
<path opacity="0.16" d="M250.95 672.521H200.41V723.071H250.95V672.521Z" fill="#64A3FF"/>
<path opacity="0.16" d="M250.95 614.853H200.41V665.403H250.95V614.853Z" fill="#64A3FF"/>
<path opacity="0.16" d="M250.95 499.723H200.41V550.273H250.95V499.723Z" fill="#64A3FF"/>
<path opacity="0.16" d="M308.71 960.45H258.17V1011H308.71V960.45Z" fill="#64A3FF"/>
<path opacity="0.16" d="M308.71 902.885H258.17V953.435H308.71V902.885Z" fill="#64A3FF"/>
<path opacity="0.16" d="M308.71 845.217H258.17V895.767H308.71V845.217Z" fill="#64A3FF"/>
<path opacity="0.16" d="M308.71 787.652H258.17V838.202H308.71V787.652Z" fill="#64A3FF"/>
<path opacity="0.16" d="M308.71 730.086H258.17V780.636H308.71V730.086Z" fill="#64A3FF"/>
<path opacity="0.16" d="M308.71 672.521H258.17V723.071H308.71V672.521Z" fill="#64A3FF"/>
<path opacity="0.16" d="M308.71 614.853H258.17V665.403H308.71V614.853Z" fill="#64A3FF"/>
<path opacity="0.16" d="M308.71 557.288H258.17V607.838H308.71V557.288Z" fill="#64A3FF"/>
<path opacity="0.16" d="M308.71 499.723H258.17V550.273H308.71V499.723Z" fill="#64A3FF"/>
<path opacity="0.05" d="M308.71 442.158H258.17V492.708H308.71V442.158Z" fill="#64A3FF"/>
<path opacity="0.06" d="M366.47 960.45H315.93V1011H366.47V960.45Z" fill="#64A3FF"/>
<path opacity="0.16" d="M366.47 902.885H315.93V953.435H366.47V902.885Z" fill="#64A3FF"/>
<path opacity="0.16" d="M366.47 845.217H315.93V895.767H366.47V845.217Z" fill="#64A3FF"/>
<path opacity="0.16" d="M366.47 787.652H315.93V838.202H366.47V787.652Z" fill="#64A3FF"/>
<path opacity="0.1" d="M366.47 730.086H315.93V780.636H366.47V730.086Z" fill="#64A3FF"/>
<path opacity="0.16" d="M366.47 672.521H315.93V723.071H366.47V672.521Z" fill="#64A3FF"/>
<path opacity="0.16" d="M366.47 614.853H315.93V665.403H366.47V614.853Z" fill="#64A3FF"/>
<path opacity="0.05" d="M366.47 557.288H315.93V607.838H366.47V557.288Z" fill="#64A3FF"/>
<path opacity="0.16" d="M366.47 499.723H315.93V550.273H366.47V499.723Z" fill="#64A3FF"/>
<path opacity="0.06" d="M366.47 442.158H315.93V492.708H366.47V442.158Z" fill="#64A3FF"/>
</g>
</g>
<defs>
<linearGradient id="paint0_linear" x1="630" y1="-29.9173" x2="630" y2="1024.48" gradientUnits="userSpaceOnUse">
<stop stop-color="#000006" stop-opacity="0"/>
<stop offset="0.3816" stop-color="#00205B" stop-opacity="0.46"/>
<stop offset="0.5926" stop-color="#003085" stop-opacity="0.41"/>
<stop offset="1" stop-color="#000046" stop-opacity="0.64"/>
</linearGradient>
<clipPath id="clip0">
<rect width="1444" height="1011" fill="white" transform="translate(-92)"/>
</clipPath>
</defs>
</svg>
