<svg width="274" height="431" viewBox="0 0 274 431" fill="none" xmlns="http://www.w3.org/2000/svg">
<path d="M131.601 242.238H127.58V232.298H123.984V229.506H135.197V232.298H131.601V242.238ZM138.27 230.69C137.763 230.69 137.324 230.519 136.952 230.176C136.594 229.834 136.416 229.424 136.416 228.948C136.416 228.471 136.594 228.062 136.952 227.719C137.324 227.377 137.763 227.206 138.27 227.206C138.776 227.206 139.208 227.377 139.565 227.719C139.923 228.062 140.101 228.471 140.101 228.948C140.101 229.424 139.923 229.834 139.565 230.176C139.208 230.519 138.776 230.69 138.27 230.69ZM136.349 231.963H140.168V242.238H136.349V231.963ZM158.122 232.678C158.36 233.035 158.479 234.42 158.479 236.832V242.238H154.66V237.212V236.006C154.66 235.455 154.607 235.127 154.503 235.023C154.384 234.904 154.131 234.845 153.744 234.845L153.476 234.867C153.014 234.897 152.575 235.001 152.158 235.18C152.173 235.492 152.18 236.043 152.18 236.832V242.238H148.361V237.212V235.872C148.361 235.41 148.309 235.127 148.204 235.023C148.085 234.904 147.832 234.845 147.445 234.845L147.177 234.867C146.76 234.882 146.328 234.979 145.882 235.157V242.238H142.062V231.963H145.167L145.569 233.638C146.06 232.983 146.626 232.507 147.266 232.209C147.907 231.896 148.554 231.74 149.21 231.74C149.761 231.74 150.282 231.822 150.773 231.986C151.279 232.149 151.629 232.38 151.823 232.678C151.912 232.812 151.987 233.058 152.046 233.415C152.523 232.834 153.066 232.41 153.677 232.142C154.287 231.874 154.898 231.74 155.508 231.74C156.059 231.74 156.58 231.822 157.072 231.986C157.578 232.149 157.928 232.38 158.122 232.678ZM166.485 239.557C166.858 239.557 167.55 239.52 168.563 239.446C168.697 239.446 168.942 239.431 169.3 239.401L169.635 241.702C168.488 242.238 166.999 242.506 165.168 242.506C163.455 242.506 162.137 242.074 161.214 241.21C160.306 240.347 159.852 239.044 159.852 237.302C159.852 236.408 159.963 235.544 160.187 234.711C160.425 233.877 160.693 233.296 160.991 232.968C161.304 232.641 161.884 232.358 162.733 232.12C163.582 231.881 164.423 231.762 165.257 231.762C166.597 231.762 167.602 232 168.272 232.477C168.942 232.953 169.382 233.616 169.59 234.465C169.799 235.299 169.903 236.423 169.903 237.838C168.89 237.897 167.9 237.927 166.932 237.927H163.76C163.76 238.403 163.857 238.761 164.051 238.999C164.259 239.237 164.55 239.394 164.922 239.468C165.294 239.528 165.815 239.557 166.485 239.557ZM163.984 234.42C163.894 234.465 163.827 234.658 163.783 235.001C163.738 235.343 163.708 235.731 163.693 236.162H164.855C165.555 236.162 166.061 236.155 166.374 236.14C166.374 235.425 166.27 234.919 166.061 234.621C165.867 234.323 165.525 234.174 165.034 234.174C164.632 234.174 164.282 234.256 163.984 234.42ZM171.314 228.836L175.134 228.68V242.238H171.314V228.836ZM179.015 230.69C178.509 230.69 178.07 230.519 177.698 230.176C177.34 229.834 177.162 229.424 177.162 228.948C177.162 228.471 177.34 228.062 177.698 227.719C178.07 227.377 178.509 227.206 179.015 227.206C179.522 227.206 179.954 227.377 180.311 227.719C180.668 228.062 180.847 228.471 180.847 228.948C180.847 229.424 180.668 229.834 180.311 230.176C179.954 230.519 179.522 230.69 179.015 230.69ZM177.095 231.963H180.914V242.238H177.095V231.963ZM192.747 232.611C192.881 232.775 192.978 233.184 193.038 233.839C193.112 234.495 193.149 235.492 193.149 236.832V242.238H189.33V236.877V235.961C189.33 235.485 189.293 235.187 189.218 235.068C189.099 234.919 188.824 234.845 188.392 234.845C188.183 234.845 188.027 234.852 187.923 234.867C187.506 234.882 187.074 234.979 186.627 235.157V242.238H182.808V231.963H185.913L186.337 233.683C187.409 232.388 188.69 231.74 190.179 231.74C190.715 231.74 191.214 231.814 191.675 231.963C192.152 232.112 192.509 232.328 192.747 232.611ZM201.146 239.557C201.518 239.557 202.21 239.52 203.223 239.446C203.357 239.446 203.603 239.431 203.96 239.401L204.295 241.702C203.148 242.238 201.659 242.506 199.828 242.506C198.115 242.506 196.797 242.074 195.874 241.21C194.966 240.347 194.512 239.044 194.512 237.302C194.512 236.408 194.623 235.544 194.847 234.711C195.085 233.877 195.353 233.296 195.651 232.968C195.964 232.641 196.544 232.358 197.393 232.12C198.242 231.881 199.083 231.762 199.917 231.762C201.257 231.762 202.262 232 202.932 232.477C203.603 232.953 204.042 233.616 204.25 234.465C204.459 235.299 204.563 236.423 204.563 237.838C203.55 237.897 202.56 237.927 201.592 237.927H198.421C198.421 238.403 198.517 238.761 198.711 238.999C198.919 239.237 199.21 239.394 199.582 239.468C199.954 239.528 200.475 239.557 201.146 239.557ZM198.644 234.42C198.555 234.465 198.488 234.658 198.443 235.001C198.398 235.343 198.368 235.731 198.354 236.162H199.515C200.215 236.162 200.721 236.155 201.034 236.14C201.034 235.425 200.93 234.919 200.721 234.621C200.528 234.323 200.185 234.174 199.694 234.174C199.292 234.174 198.942 234.256 198.644 234.42Z" fill="white"/>
<path d="M47.4751 16.0283C34.4231 16.2642 11.1526 15.4938 10.4866 37.8655C10.174 48.3653 9.06831 62.4668 14.3546 71.4383C17.5546 76.869 21.3829 82.4631 25.6567 86.665C28.4313 89.3928 32.9015 88.0428 36.2335 88.2248C47.176 88.8224 49.6509 96.2949 49.6509 107.759C49.6509 127.62 37.7076 129.674 24.6292 136.059C10.9856 142.72 4.0374 159.231 5.10751 176.985C5.83382 189.035 17.9277 198.873 14.3546 212.563C12.8107 218.479 10.6254 225.472 8.31076 230.984C3.05353 243.502 5.51163 264.396 9.33822 277.035C11.0459 282.675 13.0385 287.251 12.6624 293.376C12.0093 304.01 4.18155 308.12 10.1844 319.595C14.1758 327.226 19.9386 333.836 26.7446 337.496C30.8923 339.726 26.4145 342.961 24.6292 345.963C22.5635 349.437 18.3983 350.221 18.1018 355.322C17.7241 361.82 18.9112 367.668 20.8216 373.668C23.6773 382.637 33.3324 391.392 33.3324 401.076C33.3324 413.299 37.7936 420.332 47.1729 423.136C55.3585 425.583 63.598 425.142 71.9528 425.142C81.4572 425.142 92.8989 427.423 102.112 424.547C116.178 420.157 130.211 419.794 144.781 419.794C157.595 419.794 170.408 419.794 183.221 419.794C187.612 419.794 192.004 419.794 196.396 419.794C200.576 419.794 203.151 417.296 207.154 417.12C210.492 416.973 214.464 415.451 217.792 414.743C223.584 413.511 223.715 411.032 223.715 404.344C223.715 391.793 220.136 380.615 216.945 369.286C216.305 367.012 213.333 363.641 217.187 363.641C226.02 363.641 229.86 358.142 236.951 352.277C243.826 346.59 251.83 343.203 253.692 332.742C255.403 323.128 255.264 313.887 255.264 304.071C255.264 297.677 250.368 287.312 244.989 284.908C244.48 284.681 237.843 284.02 240.335 282.68C247.215 278.981 253.438 274.162 259.011 267.825C265.553 260.384 266.72 250.653 267.23 240.194C267.415 236.421 268.996 233.02 269.285 229.201C269.858 221.633 269.67 213.448 269.285 205.878C268.562 191.66 265.756 176.147 262.395 162.575C261.846 160.359 261.118 157.224 259.011 156.485C256.33 155.543 254.767 159.777 256.593 157.45C262.483 149.944 263.565 140.732 265.055 131.008C266.408 122.172 268.318 114.03 268.318 105.011C268.318 95.7129 269.442 85.2919 267.714 76.192C266.283 68.6569 264.28 59.8311 263.967 52.1265C263.556 42.0326 261.769 30.3205 254.055 24.7186C247.656 20.0715 241.489 19.316 234.412 17.2167C223.707 14.0411 213.294 13.6961 202.319 12.7601C184.127 11.2086 166.308 5.72453 148.045 5.33251C113.194 4.58437 78.2831 5.33251 43.4257 5.33251C38.7113 5.33251 36.4199 10.6948 36.5961 16.3254C36.8447 24.2676 46.8054 26.158 42.0356 17.3653" stroke="#E40707" stroke-width="8.12219" stroke-linecap="round" stroke-linejoin="round"/>
</svg>
