<svg width="48" height="48" viewBox="0 0 48 48" fill="none" xmlns="http://www.w3.org/2000/svg">
<g clip-path="url(#clip0)">
<path d="M47.0909 9.58083C45.3397 10.349 43.4737 10.8582 41.5283 11.1054C43.5297 9.91046 45.0572 8.03271 45.7753 5.76941C43.9093 6.88193 41.8491 7.66776 39.6535 8.10629C37.8817 6.21971 35.3564 5.05127 32.6016 5.05127C27.2568 5.05127 22.9539 9.38952 22.9539 14.7079C22.9539 15.4731 23.0186 16.2089 23.1776 16.9094C15.1515 16.5179 8.0496 12.6712 3.2787 6.81129C2.44578 8.2564 1.95722 9.91046 1.95722 11.6911C1.95722 15.0345 3.67898 17.9983 6.24543 19.7142C4.69437 19.6848 3.17275 19.2345 1.88364 18.5252C1.88364 18.5546 1.88364 18.5929 1.88364 18.6311C1.88364 23.3225 5.23003 27.2193 9.61832 28.117C8.83249 28.3318 7.97602 28.4349 7.08718 28.4349C6.46911 28.4349 5.84516 28.3995 5.25947 28.27C6.51032 32.0932 10.0598 34.904 14.2803 34.9952C10.9957 37.5646 6.82524 39.1127 2.3104 39.1127C1.51868 39.1127 0.759341 39.0774 0 38.9803C4.27644 41.738 9.3446 43.3126 14.8101 43.3126C32.5751 43.3126 42.2876 28.5967 42.2876 15.841C42.2876 15.4142 42.2729 15.0022 42.2523 14.5931C44.1683 13.2333 45.7782 11.5351 47.0909 9.58083Z" fill="#FFFFFA"/>
</g>
<defs>
<clipPath id="clip0">
<rect width="47.0909" height="47.0909" fill="white" transform="translate(0 0.636475)"/>
</clipPath>
</defs>
</svg>
